<?xml version="1.0" encoding="UTF-8" standalone="no"?>
<!-- Created with Inkscape (http://www.inkscape.org/) -->

<svg
   width="150.39996mm"
   height="150.39996mm"
   viewBox="0 0 150.39997 150.39996"
   version="1.1"
   id="svg1"
   xml:space="preserve"
   sodipodi:docname="aski-wh.svg"
   inkscape:export-filename="..\src\aski.svg"
   inkscape:export-xdpi="96"
   inkscape:export-ydpi="96"
   inkscape:version="1.4.2 (f4327f4, 2025-05-13)"
   xmlns:inkscape="http://www.inkscape.org/namespaces/inkscape"
   xmlns:sodipodi="http://sodipodi.sourceforge.net/DTD/sodipodi-0.dtd"
   xmlns="http://www.w3.org/2000/svg"
   xmlns:svg="http://www.w3.org/2000/svg"><sodipodi:namedview
     id="namedview1"
     pagecolor="#505050"
     bordercolor="#ffffff"
     borderopacity="1"
     inkscape:showpageshadow="0"
     inkscape:pageopacity="0"
     inkscape:pagecheckerboard="1"
     inkscape:deskcolor="#505050"
     inkscape:document-units="mm"
     inkscape:zoom="1.0889436"
     inkscape:cx="214.88716"
     inkscape:cy="256.67077"
     inkscape:window-width="1920"
     inkscape:window-height="991"
     inkscape:window-x="-9"
     inkscape:window-y="-9"
     inkscape:window-maximized="1"
     inkscape:current-layer="svg1" /><defs
     id="defs1" /><g
     id="g13"
     transform="translate(32.315334,9.9618759)"><circle
       style="fill:#000000;fill-opacity:1;stroke-width:0.264583"
       id="path11"
       cx="42.884647"
       cy="65.238106"
       r="75.199982" /><g
       id="g12"
       transform="translate(-23.082386,-5.3453978)"><g
         id="g11"><g
           id="layer1"
           transform="translate(-53.647399,-95.666039)"><g
             id="g1"
             transform="translate(1.9210854,0.76843464)"
             style="fill:#ffffff;fill-opacity:1;stroke:none;stroke-opacity:1"><path
               style="fill:#ffffff;fill-opacity:1;stroke:none;stroke-opacity:1"
               d="m 144.62307,218.50048 c 0,-1.4552 0.0623,-2.05052 0.13838,-1.32291 0.0761,0.7276 0.0761,1.91823 0,2.64583 -0.0761,0.72761 -0.13838,0.13229 -0.13838,-1.32292 z m 6.05501,-3.175 c 0.11991,-0.19402 0.28803,-0.35277 0.37359,-0.35277 0.0856,0 0.15557,0.15875 0.15557,0.35277 0,0.19403 -0.16812,0.35278 -0.37359,0.35278 -0.20548,0 -0.27549,-0.15875 -0.15557,-0.35278 z m 6.24238,-5.82083 c 0.007,-0.58208 0.0863,-0.7775 0.1757,-0.43426 0.0894,0.34324 0.0836,0.81949 -0.0131,1.05834 -0.0966,0.23884 -0.16982,-0.042 -0.16263,-0.62408 z m 2.40067,-4.58611 c 0,-0.29104 0.0624,-0.52917 0.13865,-0.52917 0.0763,0 0.23002,0.23813 0.3417,0.52917 0.11169,0.29104 0.0493,0.52917 -0.13864,0.52917 -0.18794,0 -0.34171,-0.23813 -0.34171,-0.52917 z m 16.77963,-31.32425 c 0.13248,-0.34791 0.32974,-0.5437 0.43835,-0.43509 0.10862,0.10862 2.3e-4,0.39328 -0.24087,0.63258 -0.34841,0.34581 -0.38893,0.30529 -0.19748,-0.19749 z m -25.95185,-30.72145 c 0,-0.0733 0.27781,-0.35107 0.61736,-0.61736 0.55953,-0.43881 0.572,-0.42633 0.13319,0.13319 -0.46085,0.58764 -0.75055,0.77452 -0.75055,0.48417 z m 9.17222,-9.50219 c 0,-0.0607 0.51594,-0.57665 1.14653,-1.14653 l 1.14653,-1.03614 -1.03614,1.14653 c -0.96583,1.06872 -1.25692,1.30868 -1.25692,1.03614 z m -83.580486,-19.1454 c 0.01693,-0.41097 0.100521,-0.49456 0.213137,-0.21314 0.101907,0.25466 0.08937,0.55893 -0.02785,0.67616 -0.117225,0.11722 -0.200604,-0.0911 -0.185287,-0.46302 z"
               id="path10" /><path
               style="fill:#ffffff;fill-opacity:1;stroke:none;stroke-opacity:1"
               d="m 149.26696,143.71159 c 0.35119,-0.38805 0.7179,-0.70555 0.81491,-0.70555 0.097,0 -0.11094,0.3175 -0.46213,0.70555 -0.35118,0.38806 -0.71789,0.70556 -0.81491,0.70556 -0.097,0 0.11095,-0.3175 0.46213,-0.70556 z m 8.99584,-9.30542 c 0,-0.0733 0.27781,-0.35106 0.61736,-0.61736 0.55953,-0.43881 0.572,-0.42633 0.13319,0.1332 -0.46086,0.58764 -0.75055,0.77451 -0.75055,0.48416 z"
               id="path9" /><path
               style="fill:#ffffff;fill-opacity:1;stroke:none;stroke-opacity:1"
               d="m 153.25776,217.90672 c 0.25467,-0.10191 0.55894,-0.0894 0.67616,0.0279 0.11723,0.11723 -0.0911,0.2006 -0.46302,0.18529 -0.41097,-0.0169 -0.49456,-0.10052 -0.21314,-0.21314 z m -3.52777,-2.46945 c 0.25466,-0.1019 0.55893,-0.0894 0.67615,0.0279 0.11723,0.11722 -0.0911,0.2006 -0.46302,0.18528 -0.41096,-0.0169 -0.49456,-0.10052 -0.21313,-0.21314 z m 7.21066,-3.46317 c 0.004,-0.77612 0.0762,-1.05208 0.16054,-0.61325 0.0844,0.43882 0.0812,1.07382 -0.007,1.41111 -0.0883,0.33728 -0.15733,-0.0217 -0.15342,-0.79786 z m 2.38048,-8.62224 c 0,-0.37661 0.13582,-0.76868 0.30182,-0.87127 0.166,-0.10259 0.22687,0.20554 0.13526,0.68474 -0.19897,1.04085 -0.43708,1.14247 -0.43708,0.18653 z M 87.641093,133.24005 c 0.254661,-0.10191 0.558932,-0.0894 0.676157,0.0279 0.117225,0.11722 -0.09113,0.2006 -0.463021,0.18528 -0.410966,-0.0169 -0.494559,-0.10052 -0.213136,-0.21313 z m -2.375448,-4.55091 c 0.01693,-0.41097 0.10052,-0.49456 0.213136,-0.21314 0.101908,0.25466 0.08938,0.55893 -0.02785,0.67616 -0.117226,0.11722 -0.200604,-0.0911 -0.185286,-0.46302 z m -7.354339,-6.14422 c 0,-0.67909 0.0726,-0.95691 0.161333,-0.61736 0.08873,0.33955 0.08873,0.89518 0,1.23472 -0.08873,0.33955 -0.161333,0.0617 -0.161333,-0.61736 z m -2.129739,-6.52639 c 0.0072,-0.58208 0.08625,-0.7775 0.175698,-0.43426 0.08944,0.34325 0.08356,0.8195 -0.01307,1.05834 -0.09663,0.23884 -0.169816,-0.042 -0.162626,-0.62408 z"
               id="path8" /><path
               style="fill:#ffffff;fill-opacity:1;stroke:none;stroke-opacity:1"
               d="m 112.93085,186.04493 c 0.11992,-0.19403 0.28804,-0.35278 0.3736,-0.35278 0.0856,0 0.15557,0.15875 0.15557,0.35278 0,0.19402 -0.16812,0.35277 -0.3736,0.35277 -0.20548,0 -0.27548,-0.15875 -0.15557,-0.35277 z m -25.929167,-17.4625 c -0.253135,-0.30501 -0.287421,-0.52917 -0.08094,-0.52917 0.197027,0 0.449607,0.23812 0.561291,0.52917 0.111683,0.29104 0.148105,0.52916 0.08094,0.52916 -0.06717,0 -0.319748,-0.23812 -0.561291,-0.52916 z m 60.677777,-23.24014 c 0,-0.0733 0.27782,-0.35107 0.61737,-0.61736 0.55952,-0.43881 0.572,-0.42634 0.13319,0.13319 -0.46086,0.58764 -0.75056,0.77451 -0.75056,0.48417 z m 9.17223,-9.525 c 0,-0.0733 0.27781,-0.35107 0.61736,-0.61737 0.55952,-0.43881 0.572,-0.42633 0.13319,0.1332 -0.46086,0.58764 -0.75055,0.77451 -0.75055,0.48417 z m -68.152264,-2.57724 c 0.254662,-0.10191 0.558933,-0.0894 0.676158,0.0279 0.117225,0.11722 -0.09114,0.2006 -0.463021,0.18528 -0.410966,-0.0169 -0.494559,-0.10052 -0.213137,-0.21313 z M 77.885162,120.78103 c 0,-0.48507 0.08007,-0.6835 0.177936,-0.44097 0.09786,0.24254 0.09786,0.63941 0,0.88195 -0.09786,0.24253 -0.177936,0.0441 -0.177936,-0.44098 z m -2.103595,-2.99861 c 0.0072,-0.58208 0.08625,-0.7775 0.175698,-0.43426 0.08944,0.34325 0.08356,0.8195 -0.01307,1.05834 -0.09663,0.23884 -0.169816,-0.042 -0.162626,-0.62408 z"
               id="path7" /><path
               style="fill:#ffffff;fill-opacity:1;stroke:none;stroke-opacity:1"
               d="m 159.05732,216.20743 c 0.004,-0.77611 0.0762,-1.05207 0.16054,-0.61325 0.0844,0.43883 0.0812,1.07383 -0.007,1.41111 -0.0883,0.33729 -0.15734,-0.0217 -0.15342,-0.79786 z m -22.66674,-23.9457 c 0,-0.0733 0.27781,-0.35106 0.61736,-0.61736 0.55952,-0.43881 0.572,-0.42633 0.13319,0.1332 -0.46086,0.58763 -0.75055,0.77451 -0.75055,0.48416 z m 10.23055,-45.86111 c 0,-0.0733 0.27781,-0.35107 0.61736,-0.61736 0.55953,-0.43881 0.57201,-0.42633 0.1332,0.13319 -0.46086,0.58764 -0.75056,0.77452 -0.75056,0.48417 z m 8.81945,-9.21542 c 0.6582,-0.6791 1.27611,-1.23472 1.37313,-1.23472 0.097,0 -0.36215,0.55562 -1.02036,1.23472 -0.6582,0.6791 -1.27611,1.23472 -1.37312,1.23472 -0.097,0 0.36214,-0.55562 1.02035,-1.23472 z M 75.768495,119.36992 c 0,-0.48507 0.08007,-0.6835 0.177936,-0.44097 0.09786,0.24253 0.09786,0.63941 0,0.88194 -0.09786,0.24254 -0.177936,0.0441 -0.177936,-0.44097 z m 2.129739,-0.17639 c 0.0072,-0.58208 0.08625,-0.7775 0.175698,-0.43425 0.08944,0.34324 0.08356,0.81949 -0.01307,1.05833 -0.09663,0.23884 -0.169816,-0.042 -0.162626,-0.62408 z m 7.761111,-1.05833 c 0.0072,-0.58208 0.08625,-0.7775 0.175699,-0.43426 0.08944,0.34324 0.08356,0.81949 -0.01307,1.05834 -0.09663,0.23884 -0.169816,-0.042 -0.162627,-0.62408 z M 130.9452,102.89277 c -0.19145,-0.50277 -0.15093,-0.54329 0.19748,-0.19748 0.2411,0.2393 0.34949,0.52396 0.24087,0.63258 -0.10861,0.10861 -0.30587,-0.0872 -0.43835,-0.4351 z"
               id="path6" /><path
               style="fill:#ffffff;fill-opacity:1;stroke:none;stroke-opacity:1"
               d="m 159.0502,213.91437 c 0,-0.67909 0.0726,-0.95691 0.16133,-0.61736 0.0887,0.33955 0.0887,0.89518 0,1.23472 -0.0887,0.33955 -0.16133,0.0617 -0.16133,-0.61736 z m -5.72629,-74.56931 c 0,-0.0733 0.27781,-0.35106 0.61736,-0.61736 0.55953,-0.43881 0.572,-0.42633 0.13319,0.1332 -0.46085,0.58763 -0.75055,0.77451 -0.75055,0.48416 z m -60.501393,-2.33625 c 0.119916,-0.19403 0.288034,-0.35278 0.373597,-0.35278 0.08556,0 0.155569,0.15875 0.155569,0.35278 0,0.19403 -0.168119,0.35278 -0.373597,0.35278 -0.205479,0 -0.275485,-0.15875 -0.155569,-0.35278 z m -5.412354,-6.70278 c 0,-0.48507 0.08007,-0.6835 0.177936,-0.44097 0.09786,0.24254 0.09786,0.63941 0,0.88195 -0.09786,0.24253 -0.177936,0.0441 -0.177936,-0.44098 z m -11.628596,-9.34861 c 0.0072,-0.58208 0.08625,-0.7775 0.175698,-0.43426 0.08944,0.34325 0.08356,0.8195 -0.01307,1.05834 -0.09663,0.23884 -0.169816,-0.042 -0.162626,-0.62408 z m 9.877778,-1.05833 c 0.0072,-0.58208 0.08625,-0.7775 0.175699,-0.43426 0.08944,0.34324 0.08356,0.81949 -0.01307,1.05833 -0.09663,0.23885 -0.169816,-0.042 -0.162627,-0.62407 z m -7.774183,-2.29306 c 0,-0.48507 0.08007,-0.6835 0.177936,-0.44097 0.09786,0.24254 0.09786,0.63941 0,0.88195 -0.09786,0.24253 -0.177936,0.0441 -0.177936,-0.44098 z M 131.2753,107.0227 c -0.11992,-0.19403 -0.0499,-0.35278 0.15557,-0.35278 0.20547,0 0.37359,0.15875 0.37359,0.35278 0,0.19403 -0.07,0.35278 -0.15557,0.35278 -0.0856,0 -0.25368,-0.15875 -0.37359,-0.35278 z"
               id="path5" /><path
               style="fill:#ffffff;fill-opacity:1;stroke:none;stroke-opacity:1"
               d="m 156.43276,217.90672 c 0.25467,-0.10191 0.55894,-0.0894 0.67616,0.0279 0.11723,0.11723 -0.0911,0.2006 -0.46302,0.18529 -0.41097,-0.0169 -0.49456,-0.10052 -0.21314,-0.21314 z m -6.70277,-0.35278 c 0.25466,-0.10191 0.55893,-0.0894 0.67615,0.0279 0.11723,0.11723 -0.0911,0.20061 -0.46302,0.18529 -0.41096,-0.0169 -0.49456,-0.10052 -0.21313,-0.21314 z m 9.32733,-5.93262 c 0.004,-0.77611 0.0762,-1.05208 0.16054,-0.61325 0.0844,0.43882 0.0812,1.07382 -0.007,1.41111 -0.0883,0.33729 -0.15734,-0.0217 -0.15342,-0.79786 z m -1.77101,-8.64306 c 0,-0.6791 0.0726,-0.95691 0.16133,-0.61736 0.0887,0.33955 0.0887,0.89517 0,1.23472 -0.0887,0.33955 -0.16133,0.0617 -0.16133,-0.61736 z M 83.032933,132.89462 c 0.242534,-0.0979 0.63941,-0.0979 0.881944,0 0.242535,0.0979 0.0441,0.17793 -0.440972,0.17793 -0.485069,0 -0.683507,-0.0801 -0.440972,-0.17793 z m 4.390301,-4.17609 c 0.0072,-0.58208 0.08625,-0.7775 0.175699,-0.43425 0.08944,0.34324 0.08356,0.81949 -0.01307,1.05833 -0.09663,0.23884 -0.169816,-0.042 -0.162627,-0.62408 z m -11.641667,-5.99722 c 0.0072,-0.58208 0.08625,-0.7775 0.175698,-0.43426 0.08944,0.34324 0.08356,0.81949 -0.01307,1.05834 -0.09663,0.23884 -0.169816,-0.042 -0.162626,-0.62408 z m 9.877778,-1.05833 c 0.0072,-0.58209 0.08625,-0.7775 0.175699,-0.43426 0.08944,0.34324 0.08356,0.81949 -0.01307,1.05833 -0.09663,0.23885 -0.169816,-0.042 -0.162627,-0.62407 z m -7.802034,-5.32107 c 0.01693,-0.41096 0.100521,-0.49456 0.213137,-0.21313 0.101907,0.25466 0.08937,0.55893 -0.02785,0.67615 -0.117225,0.11723 -0.200604,-0.0911 -0.185287,-0.46302 z"
               id="path4" /><path
               style="fill:#ffffff;fill-opacity:1;stroke:none;stroke-opacity:1"
               d="m 159.03713,209.50465 c 0.007,-0.58208 0.0863,-0.7775 0.1757,-0.43426 0.0894,0.34324 0.0836,0.81949 -0.0131,1.05834 -0.0966,0.23884 -0.16981,-0.042 -0.16262,-0.62408 z m -1.75082,-4.40972 c 0,-0.6791 0.0726,-0.95691 0.16133,-0.61736 0.0887,0.33955 0.0887,0.89517 0,1.23472 -0.0887,0.33955 -0.16133,0.0617 -0.16133,-0.61736 z m -6.96101,-62.79445 c 0.35118,-0.38806 0.71789,-0.70556 0.81491,-0.70556 0.097,0 -0.11095,0.3175 -0.46213,0.70556 -0.35119,0.38805 -0.7179,0.70556 -0.81491,0.70556 -0.097,0 0.11094,-0.31751 0.46213,-0.70556 z m 9.525,-9.87778 c 0.35118,-0.38805 0.71789,-0.70555 0.81491,-0.70555 0.097,0 -0.11095,0.3175 -0.46213,0.70555 -0.35119,0.38806 -0.7179,0.70556 -0.81491,0.70556 -0.097,0 0.11094,-0.3175 0.46213,-0.70556 z m -84.232329,-8.14217 c 0.124746,-0.47702 0.284657,-0.63694 0.372728,-0.37272 0.08484,0.2545 -0.01348,0.63047 -0.21848,0.83547 -0.261785,0.26178 -0.307697,0.12404 -0.154248,-0.46275 z"
               id="path3" /><path
               style="fill:#ffffff;fill-opacity:1;stroke:none;stroke-opacity:1"
               d="m 146.74361,143.41838 c 0.32154,-0.3553 0.46521,-0.77762 0.31926,-0.9385 -0.14594,-0.16089 -0.0566,-0.17193 0.1986,-0.0246 0.36952,0.21343 0.34044,0.40446 -0.14287,0.93851 -0.33375,0.36879 -0.6862,0.67053 -0.78321,0.67053 -0.097,0 0.0867,-0.2907 0.40822,-0.64599 z m 1.99419,0.5128 c 0,-0.0733 0.27781,-0.35107 0.61736,-0.61737 0.55952,-0.43881 0.572,-0.42633 0.13319,0.1332 -0.46086,0.58764 -0.75055,0.77451 -0.75055,0.48417 z m 9.70139,-10.09737 c 0.35118,-0.38805 0.71789,-0.70555 0.81491,-0.70555 0.097,0 -0.11095,0.3175 -0.46213,0.70555 -0.35119,0.38806 -0.7179,0.70556 -0.81491,0.70556 -0.097,0 0.11094,-0.3175 0.46213,-0.70556 z"
               id="path2" /><path
               style="fill:#ffffff;fill-opacity:1;stroke:none;stroke-opacity:1"
               d="m 100.74633,228.45579 c -1.404189,-1.8859 -2.675119,-3.56492 -2.824291,-3.73116 -0.149173,-0.16623 -1.165108,0.0322 -2.257634,0.44098 -2.550448,0.95424 -2.631642,0.94562 -3.075163,-0.32667 -0.261284,-0.74952 -0.546279,-1.01674 -0.951787,-0.89242 -1.64411,0.50403 -5.142321,1.20335 -5.356719,1.07084 -0.135165,-0.0835 -0.603228,-1.10776 -1.040139,-2.27605 -0.436911,-1.16829 -0.993194,-2.12416 -1.236184,-2.12416 -0.242991,0 -1.127924,0.24208 -1.96652,0.53795 -1.221051,0.43082 -1.579768,0.44838 -1.801122,0.0882 -0.152022,-0.24737 -5.644001,-8.06976 -12.204396,-17.38309 l -11.927992,-16.93334 1.176326,-3.13042 c 0.646979,-1.72174 1.129809,-3.16678 1.072955,-3.2112 -0.05685,-0.0444 -1.571809,-1.06077 -3.366566,-2.25854 -1.794758,-1.19777 -3.263195,-2.2687 -3.263195,-2.37985 0,-0.11116 1.275273,-1.85407 2.83394,-3.87315 1.558667,-2.01907 2.917653,-3.88919 3.019969,-4.15582 0.184425,-0.48061 -4.37613,-7.39688 -5.434711,-8.24197 -0.493223,-0.39375 -0.495633,-0.5601 -0.023,-1.5875 0.290377,-0.63122 3.596086,-7.89562 7.346018,-16.14312 l 6.81806,-14.99546 4.8025,-1.05593 4.802499,-1.05593 0.09715,-5.55625 c 0.07169,-4.10015 0.210368,-5.55445 0.529166,-5.54937 0.237608,0.004 2.479344,0.2369 4.981636,0.51803 2.502292,0.28113 4.64782,0.45046 4.767841,0.37628 0.120021,-0.0742 0.749415,-1.2329 1.398654,-2.57494 l 1.180434,-2.44008 17.864221,-4.32617 c 9.82533,-2.37939 18.53379,-4.48758 19.35214,-4.68487 1.00001,-0.24109 1.56341,-0.59656 1.71813,-1.084032 0.20807,-0.6556 0.27535,-0.61794 0.69991,0.391789 0.52903,1.258183 0.93209,1.344343 2.7451,0.586823 l 1.26916,-0.530292 2.52932,3.793482 c 1.39113,2.08642 2.57976,3.85375 2.6414,3.9274 0.0616,0.0737 1.22922,-0.28017 2.5946,-0.78627 1.36539,-0.5061 2.48253,-0.77513 2.48253,-0.59785 0,0.17728 0.14859,0.71315 0.33019,1.19082 l 0.3302,0.86849 2.75661,-0.80692 c 1.51613,-0.44381 2.84972,-0.70524 2.96352,-0.58094 0.11381,0.12429 0.56682,1.0991 1.00669,2.16626 0.43987,1.06715 0.93044,2.07946 1.09016,2.24958 0.16449,0.17519 1.07503,0.0272 2.10001,-0.34143 1.28686,-0.46274 1.8803,-0.53673 2.05431,-0.25612 0.13458,0.21703 5.40407,7.86865 11.70997,17.0036 8.77406,12.71041 11.61019,16.5769 12.08264,16.47221 0.76796,-0.17016 0.79032,-0.32559 -0.30707,2.13451 -0.50843,1.13981 -1.20929,2.72869 -1.55746,3.53085 l -0.63303,1.45849 3.49774,2.21735 c 1.92376,1.21954 3.49774,2.26852 3.49774,2.33106 0,0.0625 -1.34937,1.92825 -2.99861,4.14603 -1.64924,2.21777 -2.99861,4.1648 -2.99861,4.32674 0,0.16194 1.31846,2.26812 2.92991,4.6804 l 2.92991,4.38598 -6.96051,15.34972 -6.96052,15.34972 0.69517,0.97626 0.69516,0.97627 -1.25883,-0.52597 c -1.18812,-0.49643 -1.50847,-0.45836 -5.70362,0.67781 -2.44463,0.66208 -4.58165,1.41981 -4.74894,1.68384 -0.16728,0.26402 -0.30658,2.65538 -0.30955,5.31412 l -0.005,4.83407 -1.67569,-0.14935 c -0.92163,-0.0821 -3.14622,-0.23183 -4.94352,-0.33264 l -3.26782,-0.18328 -1.30791,2.64324 c -0.71935,1.45378 -1.55071,2.71564 -1.84746,2.80412 -1.38811,0.41392 -37.9564,8.65671 -38.4046,8.65671 -0.28046,0 -0.69714,-0.25601 -0.92594,-0.56891 -0.37882,-0.51807 -0.5447,-0.50326 -1.85601,0.16572 l -1.44001,0.73463 z m 25.74271,-2.91406 c 9.42341,-2.14218 17.41129,-3.9785 17.75084,-4.08072 0.51864,-0.15613 0.61736,-0.62159 0.61736,-2.91076 v -2.72492 l -4.98103,-2.22032 c -3.16363,-1.41021 -5.25136,-2.14964 -5.72192,-2.02658 -0.40749,0.10656 -5.03196,1.80399 -10.27661,3.77208 l -9.53572,3.57834 -2.73403,3.33696 c -1.65716,2.02262 -2.73402,3.65776 -2.73402,4.15144 0,0.44797 -0.0992,1.31058 -0.22049,1.91692 -0.15702,0.78509 -0.0877,1.10243 0.24083,1.10243 0.25372,0 8.17138,-1.75269 17.59479,-3.89487 z m -23.12915,2.04278 c 0.38573,-1.43935 0.21516,-2.19065 -0.76579,-3.37295 -0.88013,-1.06079 -1.06013,-1.1335 -1.95946,-0.79158 -0.54467,0.20708 -0.937714,0.49852 -0.873436,0.64764 0.275056,0.6381 2.959006,4.28507 3.162526,4.29726 0.12289,0.007 0.31916,-0.3438 0.43616,-0.78037 z m 13.27513,-14.10776 c 5.91785,-7.20769 12.94984,-15.76652 15.62664,-19.01963 l 4.86693,-5.91474 4.74562,-15.27164 c 2.61009,-8.39941 4.7019,-15.4037 4.64846,-15.56509 -0.11475,-0.34655 -28.81787,21.38486 -29.41148,22.26772 -0.22318,0.33193 -2.73308,10.1285 -5.57755,21.77017 -2.84448,11.64167 -5.38525,22.0001 -5.64615,23.01875 -0.26091,1.01865 -0.37039,1.84472 -0.24329,1.83572 0.1271,-0.009 5.07297,-5.91357 10.99082,-13.12126 z m -16.40417,8.2428 4.93889,-1.71935 2.52648,-10.18666 c 1.38957,-5.60267 2.50082,-10.19421 2.46945,-10.20343 -0.0314,-0.009 -0.50214,-0.20815 -1.04616,-0.44206 -0.83607,-0.35948 -1.34864,-0.3023 -3.31272,0.36954 -2.31084,0.79047 -2.33614,0.81359 -4.60032,4.20345 l -2.276702,3.40861 -1.897972,7.5275 c -1.690014,6.70273 -2.119807,8.76278 -1.828029,8.76198 0.04851,-1.3e-4 2.310694,-0.77394 5.027083,-1.71958 z m 4.40972,0.82813 c 0,-0.28737 -0.21396,-0.41517 -0.50689,-0.30276 -0.27879,0.10698 -0.4209,0.41859 -0.31581,0.69246 0.22861,0.59574 0.8227,0.31433 0.8227,-0.3897 z m -13.476579,-0.35103 c 0.193611,-0.15644 -0.354791,-1.93228 -0.596712,-1.93228 -0.246233,0 -1.448929,1.88093 -1.448929,2.26602 0,0.1876 1.754724,-0.0987 2.045641,-0.33374 z m 1.501985,-24.98556 c 3.120223,-12.38826 5.622524,-22.56744 5.56067,-22.6204 -0.443986,-0.38014 -11.595864,-3.81468 -11.781955,-3.62859 -0.129792,0.12979 -2.102035,6.50819 -4.382763,14.1742 l -4.146778,13.93822 4.26814,10.97955 c 3.091967,7.95391 4.342739,10.80064 4.538847,10.33034 0.148889,-0.35706 2.823617,-10.78505 5.943839,-23.17332 z m -9.397746,21.62886 c 0.194768,-0.19036 -1.176867,-4.18194 -3.446996,-10.03107 l -3.770488,-9.7149 1.122377,-3.83008 1.122377,-3.83008 -1.520327,-2.16738 c -0.962539,-1.37219 -2.180541,-2.57399 -3.319826,-3.27565 l -1.799498,-1.10828 -6.350001,1.24381 c -4.355209,0.85307 -6.318322,1.38004 -6.24916,1.67747 0.05546,0.23852 5.056087,7.48817 11.1125,16.11033 10.314659,14.68438 11.067486,15.6629 11.893606,15.45933 0.485069,-0.11954 1.027516,-0.35961 1.205436,-0.5335 z m 11.665845,-3.0902 c 0.340155,-1.41588 0.543377,-2.64942 0.451605,-2.74119 -0.09177,-0.0918 -0.599685,0.48718 -1.128696,1.28657 -0.851433,1.28661 -0.933617,1.65864 -0.715975,3.24108 0.29036,2.11117 0.530758,1.80289 1.393066,-1.78646 z m 7.069115,-16.44028 c 6.72379,-10.26401 12.29272,-18.83817 12.37542,-19.05368 0.13967,-0.36397 -13.92787,-5.30807 -14.23351,-5.00243 -0.31808,0.31808 -10.924702,42.91827 -10.662356,42.82405 0.162463,-0.0583 5.796665,-8.50392 12.520446,-18.76794 z m 45.3235,17.7799 c 0,-0.19402 -0.07,-0.35277 -0.15557,-0.35277 -0.0856,0 -0.25368,0.15875 -0.3736,0.35277 -0.11992,0.19403 -0.0499,0.35278 0.15557,0.35278 0.20548,0 0.3736,-0.15875 0.3736,-0.35278 z m -15.30288,-6.80453 c 0.18431,-0.18431 -6.86497,-3.43171 -7.39628,-3.40725 -0.44413,0.0204 -7.28696,8.22527 -7.28696,8.73735 0,0.26426 14.26839,-4.91525 14.68324,-5.3301 z m 20.5855,5.48162 c -0.005,-0.14552 -3.68741,-1.91352 -8.18319,-3.92889 -9.32519,-4.1803 -20.03419,-7.98361 -18.58948,-6.60208 0.0808,0.0773 5.14762,2.41082 11.25949,5.18557 8.18758,3.71711 11.6232,5.1057 13.05278,5.27563 1.06715,0.12684 2.05934,0.25396 2.20486,0.28248 0.14552,0.0285 0.26051,-0.0672 0.25554,-0.21271 z m 1.41768,-2.65018 c -0.45886,-0.6282 -1.32071,-1.81068 -1.91521,-2.62773 -0.59451,-0.81705 -1.18275,-1.49174 -1.3072,-1.49931 -0.20103,-0.0122 -1.36123,2.54704 -1.36123,3.00271 0,0.24731 5.07819,2.55787 5.26661,2.3963 0.0832,-0.0714 -0.2241,-0.64376 -0.68297,-1.27197 z m 3.32629,-5.58667 c 0.13861,-3.51163 0.17251,-6.46429 0.0753,-6.56147 -0.0972,-0.0972 -0.58097,0.6211 -1.07509,1.59618 -0.49411,0.97509 -1.17947,1.84925 -1.52302,1.94257 -0.34355,0.0933 -1.0666,0.26819 -1.60677,0.38859 -0.54633,0.12178 -1.14847,0.58398 -1.35699,1.04163 -0.33203,0.72872 -0.0787,1.22874 2.21685,4.37625 1.42545,1.95444 2.68756,3.56421 2.80469,3.57727 0.11714,0.0131 0.32639,-2.8494 0.46501,-6.36102 z m -6.68834,-3.32335 c 1.32568,-3.20516 2.34721,-5.88288 2.27007,-5.95049 -0.46883,-0.41085 -15.62027,-6.8779 -15.82197,-6.75324 -0.13593,0.084 -2.02042,2.29824 -4.18776,4.92052 -3.83627,4.64152 -3.91964,4.77903 -3.14808,5.19228 2.12273,1.13696 17.77384,8.41346 18.10165,8.4158 0.20667,0.001 1.46042,-2.61972 2.78609,-5.82487 z m 14.86901,-0.26767 c 0.08,-0.08 -0.86635,-0.57544 -2.10297,-1.10101 -1.5396,-0.65433 -2.54181,-0.88194 -3.17913,-0.72198 -0.84489,0.21205 -0.93072,0.39055 -0.93072,1.93566 v 1.70206 l 3.0337,-0.83466 c 1.66854,-0.45906 3.09914,-0.90009 3.17912,-0.98007 z m -34.90132,0.21969 c -0.56972,-0.56972 -3.10983,-1.5014 -2.97283,-1.09039 0.0793,0.23804 0.76655,0.62055 1.52711,0.85003 1.7242,0.52023 1.72587,0.5205 1.44572,0.24036 z m 24.63692,-3.30705 c 0.54601,-1.05588 0.45865,-1.75352 -0.2196,-1.75352 -0.41338,0 -1.38416,2.16641 -1.14453,2.55414 0.33059,0.5349 0.82293,0.24594 1.36413,-0.80062 z m 9.99643,-0.30433 c -2.61163,-4.32253 -19.90968,-31.41843 -20.06246,-31.42611 -0.15157,-0.008 -6.34602,19.65683 -6.47792,20.56432 -0.0369,0.25394 26.30027,12.12876 27.06955,12.20503 0.16522,0.0164 -0.0729,-0.58808 -0.52917,-1.34324 z m 9.82476,-12.77621 6.40727,-14.14923 -3.38265,-5.07716 c -1.86045,-2.79243 -3.51437,-5.07715 -3.67537,-5.07715 -0.38324,0 -4.49179,2.93154 -4.5165,3.22263 -0.0105,0.12321 2.04775,1.45295 4.57381,2.95497 2.52605,1.50203 4.67253,2.85992 4.76994,3.01753 0.0974,0.15762 -3.42457,4.93966 -7.82663,10.62677 -4.40205,5.68711 -8.00362,10.49903 -8.00347,10.69317 3.6e-4,0.46599 4.7242,7.93771 5.01846,7.93771 0.12533,0 3.11115,-6.36716 6.63514,-14.14924 z m -64.171,8.82925 c 0.096,-0.82206 -0.0734,-0.95404 -1.86325,-1.45223 -1.89038,-0.52616 -1.98356,-0.52044 -2.339,0.14372 -0.44593,0.83322 -0.4951,0.77771 1.462,1.65067 1.97732,0.88198 2.60652,0.80341 2.74025,-0.34216 z m 2.44954,-10.70277 c -0.0566,-0.44736 -0.9085,0.60813 -2.51197,3.11229 -1.37176,2.14231 -2.29173,3.91947 -2.11666,4.0889 0.1703,0.16482 0.86527,0.443 1.54437,0.61819 l 1.23472,0.31853 0.9676,-3.73049 c 0.53218,-2.05177 0.92905,-4.03511 0.88194,-4.40742 z m 63.51313,-12.74379 c -0.0543,-0.0523 -1.84044,-1.12269 -3.96914,-2.37859 l -3.87037,-2.28345 -4.5343,10.20438 -4.53431,10.20439 1.11671,1.74024 1.11671,1.74025 7.38674,-9.56605 c 4.06271,-5.26133 7.34229,-9.60886 7.28796,-9.66117 z m -8.96958,-6.48923 c 4.77379,-10.75644 8.62285,-19.61394 8.55347,-19.68332 -0.2534,-0.2534 -26.75969,6.78715 -26.85573,7.13337 -0.0545,0.19641 -0.91857,3.03328 -1.92019,6.30414 -1.00162,3.27087 -1.73818,6.16319 -1.6368,6.42737 0.19246,0.50154 11.68578,18.68265 12.31364,19.47875 0.19776,0.25076 0.47351,0.33013 0.61278,0.17639 0.13927,-0.15374 4.15905,-9.08026 8.93283,-19.8367 z M 63.757421,184.61369 c 2.015802,-0.39913 3.901839,-0.80572 4.191194,-0.90354 0.441341,-0.1492 -4.543377,-2.60411 -5.28767,-2.60411 -0.207861,0 -2.18601,2.54539 -2.928877,3.76875 -0.364189,0.59974 -0.302023,0.59571 4.025353,-0.2611 z m 19.465569,-9.59307 c 1.027975,-3.43986 1.145966,-4.14514 0.693472,-4.14514 -0.771486,0 -26.685493,4.95868 -26.86805,5.14123 -0.240752,0.24076 -0.387233,0.1896 11.785214,4.11562 l 11.641668,3.75483 0.754477,-2.3607 c 0.414963,-1.29838 1.311911,-4.22601 1.993219,-6.50584 z m 31.29158,2.46945 c -0.004,-0.49371 -9.38345,-33.05275 -9.57727,-33.24657 -0.0973,-0.0973 -33.825215,-13.8312 -36.854586,-15.00707 -0.703966,-0.27325 -1.163488,0.61378 -7.350089,14.18801 -3.629548,7.96371 -6.466637,14.60443 -6.304644,14.75715 0.498888,0.47034 30.661228,10.22445 31.616759,10.22445 0.493981,0 0.951063,0.14164 1.015739,0.31476 0.09275,0.24828 26.157611,9.04387 27.193291,9.17638 0.14552,0.0186 0.26288,-0.16458 0.2608,-0.40711 z m 32.59389,-22.96869 c 0.2049,-0.29805 -2.96749,-8.98574 -9.30235,-25.4748 -5.2873,-13.76237 -9.72977,-25.14991 -9.87214,-25.30564 -0.36739,-0.40186 -19.41284,36.18788 -19.41284,37.29558 0,0.50115 -0.16277,0.87149 -0.36172,0.82299 -0.19894,-0.0485 -0.61601,0.32104 -0.92681,0.82122 -0.54316,0.87413 -0.37812,1.55847 4.25412,17.63889 2.65056,9.20121 4.88713,16.92494 4.97015,17.16385 0.14037,0.40394 29.92998,-21.91242 30.65159,-22.96209 z m -87.838351,19.18425 c 2.993209,-0.61588 5.153795,-1.47264 5.153795,-2.0437 0,-0.20912 -3.2457,-5.01978 -3.38679,-5.01978 -0.151881,0 -5.785433,7.37246 -5.785433,7.57122 0,0.29015 0.36437,0.24411 4.018428,-0.50774 z m 15.700556,-3.03742 c 3.609629,-0.69609 6.612676,-1.31465 6.673438,-1.3746 0.15849,-0.15636 -6.357634,-2.29868 -6.991703,-2.29868 -0.45646,0 -5.906457,3.65961 -6.859468,4.60606 -0.516842,0.51328 0.08377,0.43522 7.177733,-0.93278 z m -5.92765,-2.15265 c 1.541893,-1.10393 2.751839,-2.16195 2.688768,-2.35116 -0.1321,-0.3963 -10.81868,-3.89016 -11.08479,-3.62405 -0.173652,0.17366 5.150427,7.98235 5.442476,7.98235 0.08256,0 1.411652,-0.90321 2.953546,-2.00714 z m -9.345301,-3.07555 c 0.297704,-0.7758 -2.246369,-4.34499 -3.282402,-4.60502 -0.491759,-0.12342 -0.946775,-0.17174 -1.011146,-0.10736 -0.20516,0.20516 3.410495,5.20896 3.7639,5.20896 0.186501,0 0.424842,-0.22346 0.529648,-0.49658 z M 176.46746,159.5598 c 2.40521,-1.76099 4.37312,-3.25047 4.37312,-3.30996 0,-0.40279 -4.67929,-3.06015 -4.93328,-2.80159 -0.27051,0.27538 -4.23894,8.88591 -4.23894,9.19748 0,0.35361 0.83173,-0.18121 4.7991,-3.08593 z m 0.75962,1.94014 c -0.3472,-0.34719 -0.97261,0.18581 -0.97261,0.8289 0,0.53851 0.0464,0.53754 0.59636,-0.0124 0.328,-0.328 0.49731,-0.69541 0.37625,-0.81648 z m -21.99784,-10.96455 c 3.51172,-0.90357 6.52399,-1.76493 6.69394,-1.91412 0.30396,-0.26685 -1.47567,-1.48831 -7.67784,-5.26971 l -3.13551,-1.9117 -2.23487,2.45878 c -1.22918,1.35233 -2.24187,2.61753 -2.25043,2.81156 -0.0202,0.45854 1.87772,5.46806 2.07165,5.46806 0.0815,0 3.02134,-0.73929 6.53306,-1.64287 z m 15.60398,-4.06617 c 4.50568,-1.1464 5.75681,-1.58808 5.60669,-1.97931 -0.38061,-0.99184 -21.88805,-31.81152 -22.20348,-31.81708 -0.5488,-0.01 -17.65022,6.03763 -17.98935,6.3613 -0.18866,0.18004 0.88676,3.4594 2.62134,7.99346 1.61767,4.22849 2.96502,7.7274 2.9941,7.77534 0.0291,0.0479 4.14832,-0.63279 9.15388,-1.51274 5.00555,-0.87996 9.15537,-1.54555 9.22183,-1.4791 0.0665,0.0665 -1.65928,2.00438 -3.83496,4.30649 -2.17568,2.30212 -3.79828,4.24073 -3.60577,4.30803 0.19251,0.0673 2.9694,1.77628 6.17085,3.79772 3.20146,2.02144 5.87576,3.68575 5.94288,3.69847 0.0671,0.0127 2.73202,-0.64094 5.92199,-1.45258 z m -23.97329,-2.84582 c 1.14447,-1.27129 1.38472,-1.81976 0.59752,-1.36407 -1.18014,0.68315 -1.89465,1.34527 -1.89465,1.75574 0,0.63045 0.5177,0.47413 1.29713,-0.39167 z m -41.17344,-2.00528 c 0.20086,-0.3753 0.36519,-0.75829 0.36519,-0.85107 0,-0.23778 -4.91268,-3.03697 -8.402485,-4.78764 l -2.934434,-1.47207 0.241629,1.69171 c 0.132897,0.93044 0.382082,1.84277 0.553746,2.02741 0.279796,0.30094 8.942544,3.96405 9.558994,4.04209 0.1387,0.0176 0.41651,-0.27513 0.61736,-0.65043 z m 43.97083,-3.25245 c 2.60371,-1.97011 4.68221,-3.63383 4.61889,-3.69715 -0.18504,-0.18504 -10.97843,1.70877 -11.28467,1.98001 -0.26714,0.23661 1.41735,5.29917 1.76321,5.29917 0.0927,0 2.29885,-1.61191 4.90257,-3.58203 z m -44.2777,-5.53984 c -0.63582,-4.33018 -0.88655,-5.35508 -1.21337,-4.95984 -0.0669,0.0808 -1.04842,1.39036 -2.18126,2.91004 l -2.05971,2.76306 0.60376,1.1175 c 0.67988,1.25839 5.27301,4.04239 5.44392,3.29968 0.0537,-0.23343 -0.21328,-2.54213 -0.59334,-5.13044 z m -12.219144,3.21284 c -0.426999,-2.53109 -0.386189,-2.49084 -2.734593,-2.69672 -5.583555,-0.48948 -8.165071,-0.60688 -7.9199,-0.36016 0.34722,0.34942 9.823386,4.30128 10.420714,4.34577 0.335137,0.025 0.39746,-0.31865 0.233779,-1.28889 z m 23.342354,-15.02064 c 4.48695,-8.57056 8.03161,-15.63159 7.87701,-15.69119 -0.30212,-0.11647 -18.99532,6.17496 -19.77037,6.65397 -0.37641,0.23264 -0.14194,2.49803 1.22797,11.86402 1.86034,12.71909 1.96207,13.29681 2.28508,12.97644 0.12222,-0.12123 3.89336,-7.23268 8.38031,-15.80324 z M 97.585017,133.6741 c 0,-0.30726 -8.898216,-13.63744 -9.021212,-13.51445 -0.292312,0.29231 1.672036,11.02395 2.063363,11.27257 0.237303,0.15077 0.828335,0.27705 1.313404,0.28062 0.48507,0.004 1.834445,0.47009 2.998612,1.03669 2.133205,1.03824 2.645833,1.21737 2.645833,0.92457 z m -9.389549,-3.80904 c -0.338649,-2.24998 -0.841007,-2.45016 -0.841007,-0.33514 0,1.40181 0.125783,1.83445 0.533335,1.83445 0.427667,0 0.488626,-0.29706 0.307672,-1.49931 z m -9.007205,-0.36494 c 0.889186,-1.29239 1.41577,-1.64298 3.63292,-2.41873 2.223447,-0.77795 2.608411,-1.03502 2.701136,-1.80374 l 0.108136,-0.89649 -3.459525,0.80417 c -1.902739,0.44229 -5.340743,1.23561 -7.640009,1.76293 -2.299266,0.52731 -4.045516,1.09281 -3.880556,1.25665 0.363452,0.36099 6.476713,2.77521 7.073953,2.79362 0.233214,0.007 0.891989,-0.6671 1.463945,-1.49841 z m 4.542876,1.29833 c -0.117225,-0.11722 -0.421496,-0.12975 -0.676158,-0.0279 -0.281422,0.11262 -0.197829,0.19621 0.213137,0.21314 0.371887,0.0153 0.580246,-0.0681 0.463021,-0.18529 z m 15.679431,-0.85642 c 1.77661,-0.49344 4.90867,-4.60452 4.62768,-6.07419 -0.1391,-0.72754 -0.39094,-0.97014 -1.00709,-0.97014 -0.45188,0 -2.81488,-0.17034 -5.251105,-0.37854 -2.436227,-0.20819 -4.669445,-0.32725 -4.962706,-0.26458 -0.389253,0.0832 0.183581,1.18541 2.121823,4.0827 1.460265,2.18282 2.772023,3.96787 2.915019,3.96679 0.142996,-0.001 0.843366,-0.164 1.556379,-0.36204 z m -13.938617,-1.6361 c -0.09954,-0.0995 -0.537903,-0.0677 -0.974132,0.0708 l -0.793144,0.25173 0.854753,0.46149 c 0.727826,0.39295 0.87248,0.38245 0.974132,-0.0708 0.06566,-0.29273 0.03793,-0.61367 -0.06161,-0.71322 z m -4.216571,-4.70338 c 1.705257,-0.38844 3.457655,-0.78834 3.894218,-0.88866 0.745394,-0.1713 0.79375,-0.36228 0.79375,-3.13504 v -2.95263 l -1.146528,-0.19919 c -0.630591,-0.10955 -2.456216,-0.30647 -4.056945,-0.43759 l -2.910417,-0.2384 v 4.27889 c 0,2.35338 0.07323,4.27888 0.162728,4.27888 0.0895,0 1.557937,-0.31782 3.263194,-0.70626 z m 13.495459,-3.51222 c 0.419501,-0.26532 0.352854,-0.38809 -0.352778,-0.64983 -0.478495,-0.17749 -1.782803,-0.66063 -2.898463,-1.07364 -1.11566,-0.41301 -2.028472,-0.65858 -2.028472,-0.54572 0,0.64114 1.299506,2.24411 1.918817,2.36689 1.371749,0.27197 2.84409,0.22916 3.360896,-0.0977 z m 6.536699,-1.61705 1.87084,-0.54387 -0.18758,-1.48461 c -0.32728,-2.59031 -0.55802,-2.62872 -2.27327,-0.37836 -2.566213,3.36678 -2.575915,3.3272 0.59001,2.40684 z m -1.618192,-3.95786 2.887392,-3.79616 11.27383,-3.846 c 6.2006,-2.1153 11.20331,-3.91652 11.11712,-4.00271 -0.0862,-0.0862 -7.96129,1.72561 -17.50022,4.0262 l -17.343524,4.18289 -1.029923,2.03418 -1.029924,2.03418 0.978098,0.38334 c 2.189342,0.85807 7.342506,2.74463 7.543927,2.76183 0.118707,0.0101 1.515157,-1.68986 3.103224,-3.77775 z m 36.787462,2.29686 c 0.57746,-0.45975 3.84685,-7.5228 3.59758,-7.77206 -0.0784,-0.0784 -1.5102,0.33581 -3.18185,0.92041 l -3.03935,1.0629 0.20679,1.96833 c 0.25595,2.43629 0.87086,4.2614 1.43573,4.2614 0.23498,0 0.67648,-0.19844 0.9811,-0.44098 z m 4.72162,-1.54619 c 0.95619,-0.31683 1.88033,-0.70469 2.05363,-0.8619 0.18117,-0.16436 -0.035,-1.22187 -0.50853,-2.48819 l -0.82363,-2.20236 -1.02367,2.2705 c -1.23205,2.73268 -1.68158,3.858 -1.54116,3.858 0.0576,0 0.88716,-0.25922 1.84336,-0.57605 z m 6.22023,-2.17144 c 0.91272,-0.34664 1.75014,-0.72092 1.86095,-0.83173 0.11081,-0.11081 -0.11213,-0.93309 -0.49544,-1.8273 l -0.69691,-1.62582 -1.6932,0.51374 c -0.93126,0.28256 -1.83211,0.51546 -2.00189,0.51756 -0.34043,0.004 -0.12333,1.40803 0.45067,2.91424 0.4372,1.14721 0.44567,1.14832 2.57582,0.33931 z m -11.84373,-4.61532 c 0.26268,-0.14606 -0.009,-0.82254 -0.79375,-1.97927 l -1.19283,-1.75736 v 2.22211 c 0,2.14117 0.0289,2.21326 0.79375,1.97927 0.43657,-0.13356 0.97334,-0.3427 1.19283,-0.46475 z m -3.97026,-3.52175 c -0.2291,-2.46506 -0.483,-2.8476 -1.47312,-2.21955 -0.3674,0.23306 -0.32603,0.63391 0.20878,2.02307 0.36683,0.95284 0.77519,2.03297 0.90747,2.40029 0.44592,1.23832 0.5926,0.33255 0.35687,-2.20381 z"
               id="path1" /></g></g></g></g></g></svg>
