<?xml version="1.0" standalone="no"?><svg xmlns:xlink="http://www.w3.org/1999/xlink" xmlns="http://www.w3.org/2000/svg" viewBox="0 0 1000 1142.857142857143" preserveAspectRatio="xMaxYMax slice"><g transform="scale(2.68781077812122)"><rect x="0" y="0" width="372.05000000000007" height="425.20000000000005" fill="#ffffff"/><rect x="0" y="0" width="53.15" height="53.15" fill="#d2dbf6"/><polygon points="0,0 53.15,53.15 0,53.15" fill="#607fdf"/><rect x="53.15" y="0" width="53.15" height="53.15" fill="#97abea"/><path d="M 53.15 53.15 A 53.15 53.15 0 0 1  106.3 0 L 106.3 53.15L53.15 53.15" fill="#7c95e5"/><rect x="106.3" y="0" width="53.15" height="53.15" fill="#eaeefb"/><path d="M 106.3 0 A 53.15 53.15 0 0 1  159.45 53.15 L 106.3 0 A 53.15 53.15 0 0 0 159.45 53.15" fill="#f5f7fd"/><rect x="159.45" y="0" width="53.15" height="53.15" fill="#4166d9"/><rect x="159.45" y="0" width="53.15" height="53.15" fill="#b1c0ef"/><rect x="212.60000000000002" y="0" width="53.150000000000006" height="53.150000000000006" fill="#ffffff"/><rect x="212.6" y="0" width="26.58" height="26.58" fill="#4f71dc"/><path d="M 212.6 0 A 26.58 26.58 0 0 0 239.18 26.58 L 239.18 0L212.6 0" fill="#466ada"/><rect x="239.18" y="0" width="26.58" height="26.58" fill="#f3f4f6"/><path d="M 239.18 26.58 A 26.58 26.58 0 0 0 265.76 0 L 239.18 0L239.18 26.58" fill="#9da2b1"/><rect x="212.6" y="26.58" width="26.58" height="26.58" fill="#1e4ad2"/><path d="M 212.6 53.16 A 26.58 26.58 0 0 1  239.18 26.58 L 239.18 53.16L212.6 53.16" fill="#fdfdfd"/><rect x="239.18" y="26.58" width="26.58" height="26.58" fill="#747b91"/><path d="M 239.18 26.58 A 26.58 26.58 0 0 1 265.76 53.16 L 239.18 53.16L239.18 26.58" fill="#f8f8fa"/><rect x="265.75" y="0" width="53.150000000000006" height="53.150000000000006" fill="#ffffff"/><rect x="265.75" y="0" width="26.58" height="26.58" fill="#505975"/><path d="M 265.75 26.58 A 26.58 26.58 0 0 0 292.33 0 L 265.75 0L265.75 26.58" fill="#7c96e5"/><rect x="292.33" y="0" width="26.58" height="26.58" fill="#414b69"/><path d="M 292.33 0 A 26.58 26.58 0 0 0 318.90999999999997 26.58 L 318.90999999999997 0L292.33 0" fill="#dee4f8"/><rect x="265.75" y="26.58" width="26.58" height="26.58" fill="#fefeff"/><path d="M 265.75 26.58 A 26.58 26.58 0 0 1 292.33 53.16 L 265.75 53.16L265.75 26.58" fill="#6684e0"/><rect x="292.33" y="26.58" width="26.58" height="26.58" fill="#e5e6eb"/><path d="M 292.33 53.16 A 26.58 26.58 0 0 1  318.90999999999997 26.58 L 318.90999999999997 53.16L292.33 53.16" fill="#767d93"/><rect x="318.9" y="0" width="53.15" height="53.15" fill="#c4c7d0"/><polygon points="372.04999999999995,0 372.04999999999995,53.15 318.9,53.15" fill="#a9baee"/><rect x="0" y="53.15" width="53.15" height="53.15" fill="#999eaf"/><polygon points="53.15,53.15 53.15,106.3 0,106.3" fill="#646c85"/><rect x="53.15" y="53.15" width="53.15" height="53.15" fill="#48526f"/><path d="M 53.15 106.3 A 53.15 53.15 0 0 1  106.3 53.15 L 53.15 106.3 A 53.15 53.15 0 0 0 106.3 53.15" fill="#757c92"/><rect x="106.3" y="53.15" width="53.15" height="53.15" fill="#6e758d"/><polygon points="159.45,53.15 159.45,106.3 106.3,106.3" fill="#ccced6"/><rect x="159.45" y="53.15" width="53.15" height="53.15" fill="#9db0eb"/><rect x="159.45" y="53.15" width="53.15" height="53.15" fill="#244fd3"/><rect x="212.60000000000002" y="53.150000000000006" width="53.150000000000006" height="53.150000000000006" fill="#ffffff"/><rect x="212.6" y="53.15" width="26.58" height="26.58" fill="#0133cc"/><path d="M 212.6 79.72999999999999 A 26.58 26.58 0 0 1 239.18 53.15 L 239.18 59.795 A 19.935 19.935 0 0 0 219.245 79.72999999999999" fill="#0f3ecf"/><rect x="239.18" y="53.15" width="26.58" height="26.58" fill="#8aa1e8"/><path d="M 239.18 53.15 A 26.58 26.58 0 0 1 265.76 79.72999999999999 L 259.115 79.72999999999999 A 19.935 19.935 0 0 0 239.18 59.795" fill="#a7abb9"/><rect x="212.6" y="79.73" width="26.58" height="26.58" fill="#f6f7f8"/><path d="M 212.6 79.73 A 26.58 26.58 0 0 0 239.18 106.31 L 239.18 99.665 A 19.935 19.935 0 0 1 219.245 79.73" fill="#d3dcf6"/><rect x="239.18" y="79.73" width="26.58" height="26.58" fill="#dbdce2"/><path d="M 239.18 106.31 A 26.58 26.58 0 0 0 265.76 79.73 L 259.115 79.73 A 19.935 19.935 0 0 1 239.18 99.665" fill="#2f57d5"/><rect x="265.75" y="53.15" width="53.15" height="53.15" fill="#888fa1"/><polygon points="318.9,53.15 318.9,106.3 265.75,106.3" fill="#f3f4f5"/><rect x="318.9" y="53.15" width="53.15" height="53.15" fill="#dce3f8"/><rect x="318.9" y="53.15" width="53.15" height="53.15" fill="#374261"/><rect x="0" y="106.30000000000001" width="53.150000000000006" height="53.150000000000006" fill="#ffffff"/><rect x="0" y="106.3" width="26.58" height="26.58" fill="#5d657f"/><polygon points="26.58,106.3 26.58,132.88 0,132.88" fill="#718de3"/><rect x="26.58" y="106.3" width="26.58" height="26.58" fill="#edeef1"/><polygon points="26.58,106.3 53.16,132.88 26.58,132.88" fill="#5d657f"/><rect x="0" y="132.88" width="26.58" height="26.58" fill="#8ba1e8"/><polygon points="0,132.88 26.58,132.88 0,159.45999999999998" fill="#d4d6dd"/><rect x="26.58" y="132.88" width="26.58" height="26.58" fill="#7c8398"/><polygon points="26.58,132.88 53.16,132.88 53.16,159.45999999999998" fill="#5475dd"/><rect x="53.150000000000006" y="106.30000000000001" width="53.150000000000006" height="53.150000000000006" fill="#ffffff"/><rect x="53.15" y="106.3" width="26.58" height="26.58" fill="#dcdee3"/><path d="M 53.15 106.3 A 26.58 26.58 0 0 0 79.72999999999999 132.88 L 79.72999999999999 106.3L53.15 106.3" fill="#dbe2f8"/><rect x="79.73" y="106.3" width="26.58" height="26.58" fill="#b0c0ef"/><path d="M 79.73 132.88 A 26.58 26.58 0 0 0 106.31 106.3 L 79.73 106.3L79.73 132.88" fill="#708ce2"/><rect x="53.15" y="132.88" width="26.58" height="26.58" fill="#abbbee"/><path d="M 53.15 159.45999999999998 A 26.58 26.58 0 0 1  79.72999999999999 132.88 L 79.72999999999999 159.45999999999998L53.15 159.45999999999998" fill="#999faf"/><rect x="79.73" y="132.88" width="26.58" height="26.58" fill="#e8e9ed"/><path d="M 79.73 132.88 A 26.58 26.58 0 0 1 106.31 159.45999999999998 L 79.73 159.45999999999998L79.73 132.88" fill="#91a6e9"/><rect x="106.3" y="106.3" width="53.15" height="53.15" fill="#ccd6f5"/><rect x="106.3" y="106.3" width="53.15" height="53.15" fill="#0d3dcf"/><rect x="159.45" y="106.3" width="53.15" height="53.15" fill="#f5f6f7"/><polygon points="159.45,106.3 212.6,159.45 159.45,159.45" fill="#3e4867"/><rect x="212.6" y="106.3" width="53.15" height="53.15" fill="#9ca1b1"/><polygon points="212.6,106.3 265.75,159.45 212.6,159.45" fill="#5073dc"/><rect x="265.75" y="106.30000000000001" width="53.150000000000006" height="53.150000000000006" fill="#ffffff"/><rect x="265.75" y="106.3" width="26.58" height="26.58" fill="#81879b"/><path d="M 265.75 106.3 A 26.58 26.58 0 0 1 292.33 132.88 L 265.75 132.88L265.75 106.3" fill="#4e5773"/><rect x="292.33" y="106.3" width="26.58" height="26.58" fill="#d3dbf6"/><path d="M 292.33 132.88 A 26.58 26.58 0 0 1  318.90999999999997 106.3 L 318.90999999999997 132.88L292.33 132.88" fill="#dae2f8"/><rect x="265.75" y="132.88" width="26.58" height="26.58" fill="#323d5d"/><path d="M 265.75 159.45999999999998 A 26.58 26.58 0 0 0 292.33 132.88 L 265.75 132.88L265.75 159.45999999999998" fill="#5a627c"/><rect x="292.33" y="132.88" width="26.58" height="26.58" fill="#94a9ea"/><path d="M 292.33 132.88 A 26.58 26.58 0 0 0 318.90999999999997 159.45999999999998 L 318.90999999999997 132.88L292.33 132.88" fill="#49526f"/><rect x="318.9" y="106.3" width="53.15" height="53.15" fill="#5c657f"/><path d="M 318.9 106.3 A 53.15 53.15 0 0 0 372.04999999999995 159.45 L 372.04999999999995 106.3L318.9 106.3" fill="#d7d9df"/><rect x="0" y="159.45" width="53.15" height="53.15" fill="#89a0e7"/><polygon points="53.15,159.45 53.15,212.6 0,212.6" fill="#a7acba"/><rect x="53.15" y="159.45" width="53.15" height="53.15" fill="#a8adba"/><path d="M 53.15 212.6 A 53.15 53.15 0 0 1  106.3 159.45 L 53.15 212.6 A 53.15 53.15 0 0 0 106.3 159.45" fill="#414b69"/><rect x="106.3" y="159.45" width="53.15" height="53.15" fill="#7f869a"/><rect x="106.3" y="159.45" width="53.15" height="53.15" fill="#5e6680"/><rect x="159.45000000000002" y="159.45000000000002" width="53.150000000000006" height="53.150000000000006" fill="#ffffff"/><rect x="159.45" y="159.45" width="26.58" height="26.58" fill="#e9eaee"/><path d="M 159.45 186.02999999999997 A 26.58 26.58 0 0 1 186.02999999999997 159.45 L 186.02999999999997 166.095 A 19.935 19.935 0 0 0 166.095 186.02999999999997" fill="#adbdef"/><rect x="186.03" y="159.45" width="26.58" height="26.58" fill="#244fd3"/><path d="M 186.03 159.45 A 26.58 26.58 0 0 1 212.61 186.02999999999997 L 205.965 186.02999999999997 A 19.935 19.935 0 0 0 186.03 166.095" fill="#f6f8fd"/><rect x="159.45" y="186.03" width="26.58" height="26.58" fill="#a8acba"/><path d="M 159.45 186.03 A 26.58 26.58 0 0 0 186.02999999999997 212.61 L 186.02999999999997 205.965 A 19.935 19.935 0 0 1 166.095 186.03" fill="#355cd7"/><rect x="186.03" y="186.03" width="26.58" height="26.58" fill="#737b91"/><path d="M 186.03 212.61 A 26.58 26.58 0 0 0 212.61 186.03 L 205.965 186.03 A 19.935 19.935 0 0 1 186.03 205.965" fill="#333d5e"/><rect x="212.6" y="159.45" width="53.15" height="53.15" fill="#b3c2f0"/><polygon points="265.75,159.45 265.75,212.6 212.6,212.6" fill="#999faf"/><rect x="265.75" y="159.45" width="53.15" height="53.15" fill="#c6d1f4"/><polygon points="318.9,159.45 318.9,212.6 265.75,212.6" fill="#e5eafa"/><rect x="318.90000000000003" y="159.45000000000002" width="53.150000000000006" height="53.150000000000006" fill="#ffffff"/><rect x="318.9" y="159.45" width="26.58" height="26.58" fill="#fefefe"/><path d="M 318.9 186.02999999999997 A 26.58 26.58 0 0 1  345.47999999999996 159.45 L 345.47999999999996 186.02999999999997L318.9 186.02999999999997" fill="#bfcbf2"/><rect x="345.48" y="159.45" width="26.58" height="26.58" fill="#6f8ce2"/><path d="M 345.48 159.45 A 26.58 26.58 0 0 1 372.06 186.02999999999997 L 345.48 186.02999999999997L345.48 159.45" fill="#e6e8eb"/><rect x="318.9" y="186.03" width="26.58" height="26.58" fill="#4f5874"/><path d="M 318.9 186.03 A 26.58 26.58 0 0 0 345.47999999999996 212.61 L 345.47999999999996 186.03L318.9 186.03" fill="#bec1cc"/><rect x="345.48" y="186.03" width="26.58" height="26.58" fill="#2d56d5"/><path d="M 345.48 212.61 A 26.58 26.58 0 0 0 372.06 186.03 L 345.48 186.03L345.48 212.61" fill="#d2d4db"/><rect x="0" y="212.6" width="53.15" height="53.15" fill="#dbdde2"/><path d="M 0 265.75 A 53.15 53.15 0 0 1  53.15 212.6 L 0 265.75 A 53.15 53.15 0 0 0 53.15 212.6" fill="#cbced6"/><rect x="53.15" y="212.6" width="53.15" height="53.15" fill="#545d78"/><polygon points="53.15,212.6 106.3,212.6 106.3,265.75" fill="#999eae"/><rect x="106.30000000000001" y="212.60000000000002" width="53.150000000000006" height="53.150000000000006" fill="#ffffff"/><rect x="106.3" y="212.6" width="26.58" height="26.58" fill="#a8acba"/><path d="M 106.3 212.6 A 26.58 26.58 0 0 1 132.88 239.18 L 106.3 239.18L106.3 212.6" fill="#6785e1"/><rect x="132.88" y="212.6" width="26.58" height="26.58" fill="#486cda"/><path d="M 132.88 239.18 A 26.58 26.58 0 0 1  159.45999999999998 212.6 L 159.45999999999998 239.18L132.88 239.18" fill="#343e5f"/><rect x="106.3" y="239.18" width="26.58" height="26.58" fill="#6b738a"/><path d="M 106.3 265.76 A 26.58 26.58 0 0 0 132.88 239.18 L 106.3 239.18L106.3 265.76" fill="#a5b7ed"/><rect x="132.88" y="239.18" width="26.58" height="26.58" fill="#e0e2e7"/><path d="M 132.88 239.18 A 26.58 26.58 0 0 0 159.45999999999998 265.76 L 159.45999999999998 239.18L132.88 239.18" fill="#2c55d5"/><rect x="159.45" y="212.6" width="53.15" height="53.15" fill="#a3a7b6"/><path d="M 159.45 265.75 A 53.15 53.15 0 0 0 212.6 212.6 L 159.45 212.6L159.45 265.75" fill="#fcfcfd"/><rect x="212.6" y="212.6" width="53.15" height="53.15" fill="#3c4665"/><polygon points="212.6,212.6 265.75,265.75 212.6,265.75" fill="#dfe0e6"/><rect x="265.75" y="212.6" width="53.15" height="53.15" fill="#5d7ddf"/><rect x="265.75" y="212.6" width="53.15" height="53.15" fill="#5778dd"/><rect x="318.9" y="212.6" width="53.15" height="53.15" fill="#e2e3e8"/><polygon points="372.04999999999995,212.6 372.04999999999995,265.75 318.9,265.75" fill="#b1b5c2"/><rect x="0" y="265.75" width="53.15" height="53.15" fill="#979cad"/><path d="M 0 265.75 A 53.15 53.15 0 0 0 53.15 318.9 L 53.15 265.75L0 265.75" fill="#5c657e"/><rect x="53.15" y="265.75" width="53.15" height="53.15" fill="#89a0e7"/><rect x="53.15" y="265.75" width="53.15" height="53.15" fill="#a7b8ed"/><rect x="106.3" y="265.75" width="53.15" height="53.15" fill="#fefefe"/><polygon points="106.3,265.75 159.45,265.75 106.3,318.9" fill="#8099e6"/><rect x="159.45" y="265.75" width="53.15" height="53.15" fill="#7d8499"/><polygon points="159.45,265.75 212.6,318.9 159.45,318.9" fill="#d6def7"/><rect x="212.60000000000002" y="265.75" width="53.150000000000006" height="53.150000000000006" fill="#ffffff"/><rect x="212.6" y="265.75" width="26.58" height="26.58" fill="#8c92a4"/><path d="M 212.6 265.75 A 26.58 26.58 0 0 1 239.18 292.33 L 212.6 292.33L212.6 265.75" fill="#a0a5b4"/><rect x="239.18" y="265.75" width="26.58" height="26.58" fill="#d0d2da"/><path d="M 239.18 292.33 A 26.58 26.58 0 0 1  265.76 265.75 L 265.76 292.33L239.18 292.33" fill="#6e8ae2"/><rect x="212.6" y="292.33" width="26.58" height="26.58" fill="#a3a8b6"/><path d="M 212.6 318.90999999999997 A 26.58 26.58 0 0 0 239.18 292.33 L 212.6 292.33L212.6 318.90999999999997" fill="#515a76"/><rect x="239.18" y="292.33" width="26.58" height="26.58" fill="#385fd7"/><path d="M 239.18 292.33 A 26.58 26.58 0 0 0 265.76 318.90999999999997 L 265.76 292.33L239.18 292.33" fill="#d9dbe1"/><rect x="265.75" y="265.75" width="53.15" height="53.15" fill="#5677dd"/><rect x="265.75" y="265.75" width="53.15" height="53.15" fill="#1241d0"/><rect x="318.9" y="265.75" width="53.15" height="53.15" fill="#dbe2f8"/><path d="M 318.9 265.75 A 53.15 53.15 0 0 1  372.04999999999995 318.9 L 318.9 265.75 A 53.15 53.15 0 0 0 372.04999999999995 318.9" fill="#81879b"/><rect x="0" y="318.9" width="53.15" height="53.15" fill="#323c5d"/><polygon points="0,318.9 53.15,318.9 0,372.04999999999995" fill="#2852d4"/><rect x="53.15" y="318.9" width="53.15" height="53.15" fill="#9298a9"/><path d="M 53.15 318.9 A 53.15 53.15 0 0 1  106.3 372.04999999999995 L 53.15 318.9 A 53.15 53.15 0 0 0 106.3 372.04999999999995" fill="#545d78"/><rect x="106.3" y="318.9" width="53.15" height="53.15" fill="#7993e4"/><path d="M 106.3 372.04999999999995 A 53.15 53.15 0 0 0 159.45 318.9 L 106.3 318.9L106.3 372.04999999999995" fill="#868da0"/><rect x="159.45000000000002" y="318.90000000000003" width="53.150000000000006" height="53.150000000000006" fill="#ffffff"/><rect x="159.45" y="318.9" width="26.58" height="26.58" fill="#3f4967"/><path d="M 159.45 318.9 A 26.58 26.58 0 0 0 186.02999999999997 345.47999999999996 L 186.02999999999997 318.9L159.45 318.9" fill="#94a9ea"/><rect x="186.03" y="318.9" width="26.58" height="26.58" fill="#c9cbd4"/><path d="M 186.03 345.47999999999996 A 26.58 26.58 0 0 0 212.61 318.9 L 186.03 318.9L186.03 345.47999999999996" fill="#92a8e9"/><rect x="159.45" y="345.48" width="26.58" height="26.58" fill="#fbfbfe"/><path d="M 159.45 372.06 A 26.58 26.58 0 0 1  186.02999999999997 345.48 L 186.02999999999997 372.06L159.45 372.06" fill="#4d5672"/><rect x="186.03" y="345.48" width="26.58" height="26.58" fill="#0e3dcf"/><path d="M 186.03 345.48 A 26.58 26.58 0 0 1 212.61 372.06 L 186.03 372.06L186.03 345.48" fill="#80879b"/><rect x="212.60000000000002" y="318.90000000000003" width="53.150000000000006" height="53.150000000000006" fill="#ffffff"/><rect x="212.6" y="318.9" width="26.58" height="26.58" fill="#444e6b"/><polygon points="239.18,318.9 239.18,345.47999999999996 212.6,345.47999999999996" fill="#b9c7f1"/><rect x="239.18" y="318.9" width="26.58" height="26.58" fill="#9fb2ec"/><polygon points="239.18,318.9 265.76,318.9 239.18,345.47999999999996" fill="#5a637d"/><rect x="212.6" y="345.48" width="26.58" height="26.58" fill="#858c9f"/><polygon points="212.6,345.48 239.18,345.48 239.18,372.06" fill="#5576dd"/><rect x="239.18" y="345.48" width="26.58" height="26.58" fill="#0839ce"/><polygon points="239.18,345.48 265.76,372.06 239.18,372.06" fill="#58607b"/><rect x="265.75" y="318.90000000000003" width="53.150000000000006" height="53.150000000000006" fill="#ffffff"/><rect x="265.75" y="318.9" width="26.58" height="26.58" fill="#687088"/><polygon points="292.33,318.9 292.33,345.47999999999996 265.75,345.47999999999996" fill="#c1cdf3"/><rect x="292.33" y="318.9" width="26.58" height="26.58" fill="#606881"/><polygon points="292.33,318.9 318.90999999999997,345.47999999999996 292.33,345.47999999999996" fill="#8ba2e8"/><rect x="265.75" y="345.48" width="26.58" height="26.58" fill="#7590e3"/><polygon points="265.75,345.48 292.33,345.48 292.33,372.06" fill="#e9edfb"/><rect x="292.33" y="345.48" width="26.58" height="26.58" fill="#2752d4"/><polygon points="292.33,345.48 318.90999999999997,345.48 292.33,372.06" fill="#a1a6b5"/><rect x="318.90000000000003" y="318.90000000000003" width="53.150000000000006" height="53.150000000000006" fill="#ffffff"/><rect x="318.9" y="318.9" width="26.58" height="26.58" fill="#738ee3"/><path d="M 318.9 345.47999999999996 A 26.58 26.58 0 0 1 345.47999999999996 318.9 L 345.47999999999996 325.54499999999996 A 19.935 19.935 0 0 0 325.54499999999996 345.47999999999996" fill="#868c9f"/><rect x="345.48" y="318.9" width="26.58" height="26.58" fill="#81879b"/><path d="M 345.48 318.9 A 26.58 26.58 0 0 1 372.06 345.47999999999996 L 365.415 345.47999999999996 A 19.935 19.935 0 0 0 345.48 325.54499999999996" fill="#f2f5fc"/><rect x="318.9" y="345.48" width="26.58" height="26.58" fill="#4166d9"/><path d="M 318.9 345.48 A 26.58 26.58 0 0 0 345.47999999999996 372.06 L 345.47999999999996 365.415 A 19.935 19.935 0 0 1 325.54499999999996 345.48" fill="#728ee3"/><rect x="345.48" y="345.48" width="26.58" height="26.58" fill="#f5f7fd"/><path d="M 345.48 372.06 A 26.58 26.58 0 0 0 372.06 345.48 L 365.415 345.48 A 19.935 19.935 0 0 1 345.48 365.415" fill="#d0d2da"/><rect x="0" y="372.05" width="53.15" height="53.15" fill="#6583e0"/><path d="M 0 372.05 A 53.15 53.15 0 0 0 53.15 425.2 L 53.15 372.05L0 372.05" fill="#9399aa"/><rect x="53.150000000000006" y="372.05000000000007" width="53.150000000000006" height="53.150000000000006" fill="#ffffff"/><rect x="53.15" y="372.05" width="26.58" height="26.58" fill="#4f5874"/><polygon points="79.72999999999999,372.05 79.72999999999999,398.63 53.15,398.63" fill="#b0b4c0"/><rect x="79.73" y="372.05" width="26.58" height="26.58" fill="#343f5f"/><polygon points="79.73,372.05 106.31,372.05 79.73,398.63" fill="#5778dd"/><rect x="53.15" y="398.63" width="26.58" height="26.58" fill="#b0b4c1"/><polygon points="53.15,398.63 79.72999999999999,398.63 79.72999999999999,425.21" fill="#c3c6d0"/><rect x="79.73" y="398.63" width="26.58" height="26.58" fill="#a8b9ee"/><polygon points="79.73,398.63 106.31,425.21 79.73,425.21" fill="#b5c3f0"/><rect x="106.3" y="372.05" width="53.15" height="53.15" fill="#fbfcfe"/><rect x="106.3" y="372.05" width="53.15" height="53.15" fill="#8e94a6"/><rect x="159.45" y="372.05" width="53.15" height="53.15" fill="#6b88e1"/><path d="M 159.45 425.2 A 53.15 53.15 0 0 1  212.6 372.05 L 159.45 425.2 A 53.15 53.15 0 0 0 212.6 372.05" fill="#5d7ddf"/><rect x="212.6" y="372.05" width="53.15" height="53.15" fill="#656d85"/><polygon points="212.6,372.05 265.75,372.05 265.75,425.2" fill="#ccced7"/><rect x="265.75" y="372.05000000000007" width="53.150000000000006" height="53.150000000000006" fill="#ffffff"/><rect x="265.75" y="372.05" width="26.58" height="26.58" fill="#3c63d8"/><path d="M 265.75 398.63 A 26.58 26.58 0 0 1 292.33 372.05 L 292.33 378.695 A 19.935 19.935 0 0 0 272.395 398.63" fill="#646c85"/><rect x="292.33" y="372.05" width="26.58" height="26.58" fill="#a3b5ed"/><path d="M 292.33 372.05 A 26.58 26.58 0 0 1 318.90999999999997 398.63 L 312.265 398.63 A 19.935 19.935 0 0 0 292.33 378.695" fill="#a0b2ec"/><rect x="265.75" y="398.63" width="26.58" height="26.58" fill="#9ca1b1"/><path d="M 265.75 398.63 A 26.58 26.58 0 0 0 292.33 425.21 L 292.33 418.565 A 19.935 19.935 0 0 1 272.395 398.63" fill="#2e395a"/><rect x="292.33" y="398.63" width="26.58" height="26.58" fill="#3d63d8"/><path d="M 292.33 425.21 A 26.58 26.58 0 0 0 318.90999999999997 398.63 L 312.265 398.63 A 19.935 19.935 0 0 1 292.33 418.565" fill="#cacdd5"/><rect x="318.9" y="372.05" width="53.15" height="53.15" fill="#7e8599"/><polygon points="318.9,372.05 372.04999999999995,372.05 372.04999999999995,425.2" fill="#c3cef3"/></g></svg>