<svg width="43" height="39" viewBox="0 0 43 39" fill="none" xmlns="http://www.w3.org/2000/svg">
<rect width="42.2244" height="39" rx="10" fill="white" fill-opacity="0.1"/>
<path d="M17.5841 7V32M12.6449 12.5556H11.2337M12.6449 16.7222H11.2337M35.2244 19.5C35.2244 14.375 35.2244 11.8139 34.0756 9.99861C33.6619 9.33823 33.1341 8.754 32.5162 8.27222C30.8778 7 28.5634 7 23.9346 7H18.2897C13.661 7 11.348 7 9.70813 8.27222C9.10131 8.74167 8.57351 9.32639 8.14873 9.99861C7 11.8139 7 14.375 7 19.5C7 24.625 7 27.1861 8.14873 29.0014C8.5625 29.6618 9.09022 30.246 9.70813 30.7278C11.3466 32 13.661 32 18.2897 32H23.9346C28.5634 32 30.8764 32 32.5162 30.7278C33.1341 30.246 33.6619 29.6618 34.0756 29.0014C35.2244 27.1861 35.2244 24.625 35.2244 19.5Z" stroke="white" stroke-width="2.5" stroke-linecap="round" stroke-linejoin="round"/>
</svg>
