<svg xmlns="http://www.w3.org/2000/svg" version="1.1" xmlns:xlink="http://www.w3.org/1999/xlink" xmlns:svgjs="http://svgjs.dev/svgjs" viewBox="0 0 800 800" opacity="0.33"><g stroke-width="0.5" stroke="#0d0c22" fill="none" stroke-linecap="round" transform="matrix(1,0,0,1,-5,-1165.9817562103271)"><path d="M10,10C20.73717948717949,10.208333333333334,37.98076923076923,14.125,61.53846153846154,11C85.09615384615384,7.875,97.43589743589745,-5.833333333333333,123.07692307692308,-5C148.71794871794873,-4.166666666666667,158.97435897435898,14.166666666666666,184.6153846153846,15C210.25641025641025,15.833333333333334,220.51282051282053,-1.8333333333333333,246.15384615384616,-1C271.7948717948718,-0.16666666666666674,282.05128205128204,18.166666666666668,307.6923076923077,19C333.3333333333333,19.833333333333332,343.5897435897436,2.166666666666667,369.2307692307692,3C394.87179487179486,3.833333333333333,405.12820512820514,22.166666666666668,430.7692307692308,23C456.4102564102564,23.833333333333332,466.6666666666667,6.166666666666667,492.3076923076923,7C517.948717948718,7.833333333333333,528.2051282051282,26.166666666666668,553.8461538461538,27C579.4871794871794,27.833333333333332,589.7435897435897,10.166666666666666,615.3846153846154,11C641.025641025641,11.833333333333334,651.2820512820513,30.166666666666668,676.9230769230769,31C702.5641025641025,31.833333333333332,712.8205128205128,14.166666666666666,738.4615384615385,15C764.1025641025641,15.833333333333334,787.1794871794872,30.833333333333332,800,35"></path><path d="M10,10C20.73717948717949,10.208333333333334,37.98076923076923,14.125,61.53846153846154,11C85.09615384615384,7.875,97.43589743589745,-5.833333333333333,123.07692307692308,-5C148.71794871794873,-4.166666666666667,158.97435897435898,14.166666666666666,184.6153846153846,15C210.25641025641025,15.833333333333334,220.51282051282053,-1.8333333333333333,246.15384615384616,-1C271.7948717948718,-0.16666666666666674,282.05128205128204,18.166666666666668,307.6923076923077,19C333.3333333333333,19.833333333333332,343.5897435897436,2.166666666666667,369.2307692307692,3C394.87179487179486,3.833333333333333,405.12820512820514,22.166666666666668,430.7692307692308,23C456.4102564102564,23.833333333333332,466.6666666666667,6.166666666666667,492.3076923076923,7C517.948717948718,7.833333333333333,528.2051282051282,26.166666666666668,553.8461538461538,27C579.4871794871794,27.833333333333332,589.7435897435897,10.166666666666666,615.3846153846154,11C641.025641025641,11.833333333333334,651.2820512820513,30.166666666666668,676.9230769230769,31C702.5641025641025,31.833333333333332,712.8205128205128,14.166666666666666,738.4615384615385,15C764.1025641025641,15.833333333333334,787.1794871794872,30.833333333333332,800,35" transform="matrix(1,0,0,1,0,3102)"></path><path d="M10,10C20.73717948717949,10.208333333333334,37.98076923076923,14.125,61.53846153846154,11C85.09615384615384,7.875,97.43589743589745,-5.833333333333333,123.07692307692308,-5C148.71794871794873,-4.166666666666667,158.97435897435898,14.166666666666666,184.6153846153846,15C210.25641025641025,15.833333333333334,220.51282051282053,-1.8333333333333333,246.15384615384616,-1C271.7948717948718,-0.16666666666666674,282.05128205128204,18.166666666666668,307.6923076923077,19C333.3333333333333,19.833333333333332,343.5897435897436,2.166666666666667,369.2307692307692,3C394.87179487179486,3.833333333333333,405.12820512820514,22.166666666666668,430.7692307692308,23C456.4102564102564,23.833333333333332,466.6666666666667,6.166666666666667,492.3076923076923,7C517.948717948718,7.833333333333333,528.2051282051282,26.166666666666668,553.8461538461538,27C579.4871794871794,27.833333333333332,589.7435897435897,10.166666666666666,615.3846153846154,11C641.025641025641,11.833333333333334,651.2820512820513,30.166666666666668,676.9230769230769,31C702.5641025641025,31.833333333333332,712.8205128205128,14.166666666666666,738.4615384615385,15C764.1025641025641,15.833333333333334,787.1794871794872,30.833333333333332,800,35" transform="matrix(1,0,0,1,0,3055)"></path><path d="M10,10C20.73717948717949,10.208333333333334,37.98076923076923,14.125,61.53846153846154,11C85.09615384615384,7.875,97.43589743589745,-5.833333333333333,123.07692307692308,-5C148.71794871794873,-4.166666666666667,158.97435897435898,14.166666666666666,184.6153846153846,15C210.25641025641025,15.833333333333334,220.51282051282053,-1.8333333333333333,246.15384615384616,-1C271.7948717948718,-0.16666666666666674,282.05128205128204,18.166666666666668,307.6923076923077,19C333.3333333333333,19.833333333333332,343.5897435897436,2.166666666666667,369.2307692307692,3C394.87179487179486,3.833333333333333,405.12820512820514,22.166666666666668,430.7692307692308,23C456.4102564102564,23.833333333333332,466.6666666666667,6.166666666666667,492.3076923076923,7C517.948717948718,7.833333333333333,528.2051282051282,26.166666666666668,553.8461538461538,27C579.4871794871794,27.833333333333332,589.7435897435897,10.166666666666666,615.3846153846154,11C641.025641025641,11.833333333333334,651.2820512820513,30.166666666666668,676.9230769230769,31C702.5641025641025,31.833333333333332,712.8205128205128,14.166666666666666,738.4615384615385,15C764.1025641025641,15.833333333333334,787.1794871794872,30.833333333333332,800,35" transform="matrix(1,0,0,1,0,3008)"></path><path d="M10,10C20.73717948717949,10.208333333333334,37.98076923076923,14.125,61.53846153846154,11C85.09615384615384,7.875,97.43589743589745,-5.833333333333333,123.07692307692308,-5C148.71794871794873,-4.166666666666667,158.97435897435898,14.166666666666666,184.6153846153846,15C210.25641025641025,15.833333333333334,220.51282051282053,-1.8333333333333333,246.15384615384616,-1C271.7948717948718,-0.16666666666666674,282.05128205128204,18.166666666666668,307.6923076923077,19C333.3333333333333,19.833333333333332,343.5897435897436,2.166666666666667,369.2307692307692,3C394.87179487179486,3.833333333333333,405.12820512820514,22.166666666666668,430.7692307692308,23C456.4102564102564,23.833333333333332,466.6666666666667,6.166666666666667,492.3076923076923,7C517.948717948718,7.833333333333333,528.2051282051282,26.166666666666668,553.8461538461538,27C579.4871794871794,27.833333333333332,589.7435897435897,10.166666666666666,615.3846153846154,11C641.025641025641,11.833333333333334,651.2820512820513,30.166666666666668,676.9230769230769,31C702.5641025641025,31.833333333333332,712.8205128205128,14.166666666666666,738.4615384615385,15C764.1025641025641,15.833333333333334,787.1794871794872,30.833333333333332,800,35" transform="matrix(1,0,0,1,0,2961)"></path><path d="M10,10C20.73717948717949,10.208333333333334,37.98076923076923,14.125,61.53846153846154,11C85.09615384615384,7.875,97.43589743589745,-5.833333333333333,123.07692307692308,-5C148.71794871794873,-4.166666666666667,158.97435897435898,14.166666666666666,184.6153846153846,15C210.25641025641025,15.833333333333334,220.51282051282053,-1.8333333333333333,246.15384615384616,-1C271.7948717948718,-0.16666666666666674,282.05128205128204,18.166666666666668,307.6923076923077,19C333.3333333333333,19.833333333333332,343.5897435897436,2.166666666666667,369.2307692307692,3C394.87179487179486,3.833333333333333,405.12820512820514,22.166666666666668,430.7692307692308,23C456.4102564102564,23.833333333333332,466.6666666666667,6.166666666666667,492.3076923076923,7C517.948717948718,7.833333333333333,528.2051282051282,26.166666666666668,553.8461538461538,27C579.4871794871794,27.833333333333332,589.7435897435897,10.166666666666666,615.3846153846154,11C641.025641025641,11.833333333333334,651.2820512820513,30.166666666666668,676.9230769230769,31C702.5641025641025,31.833333333333332,712.8205128205128,14.166666666666666,738.4615384615385,15C764.1025641025641,15.833333333333334,787.1794871794872,30.833333333333332,800,35" transform="matrix(1,0,0,1,0,2914)"></path><path d="M10,10C20.73717948717949,10.208333333333334,37.98076923076923,14.125,61.53846153846154,11C85.09615384615384,7.875,97.43589743589745,-5.833333333333333,123.07692307692308,-5C148.71794871794873,-4.166666666666667,158.97435897435898,14.166666666666666,184.6153846153846,15C210.25641025641025,15.833333333333334,220.51282051282053,-1.8333333333333333,246.15384615384616,-1C271.7948717948718,-0.16666666666666674,282.05128205128204,18.166666666666668,307.6923076923077,19C333.3333333333333,19.833333333333332,343.5897435897436,2.166666666666667,369.2307692307692,3C394.87179487179486,3.833333333333333,405.12820512820514,22.166666666666668,430.7692307692308,23C456.4102564102564,23.833333333333332,466.6666666666667,6.166666666666667,492.3076923076923,7C517.948717948718,7.833333333333333,528.2051282051282,26.166666666666668,553.8461538461538,27C579.4871794871794,27.833333333333332,589.7435897435897,10.166666666666666,615.3846153846154,11C641.025641025641,11.833333333333334,651.2820512820513,30.166666666666668,676.9230769230769,31C702.5641025641025,31.833333333333332,712.8205128205128,14.166666666666666,738.4615384615385,15C764.1025641025641,15.833333333333334,787.1794871794872,30.833333333333332,800,35" transform="matrix(1,0,0,1,0,2867)"></path><path d="M10,10C20.73717948717949,10.208333333333334,37.98076923076923,14.125,61.53846153846154,11C85.09615384615384,7.875,97.43589743589745,-5.833333333333333,123.07692307692308,-5C148.71794871794873,-4.166666666666667,158.97435897435898,14.166666666666666,184.6153846153846,15C210.25641025641025,15.833333333333334,220.51282051282053,-1.8333333333333333,246.15384615384616,-1C271.7948717948718,-0.16666666666666674,282.05128205128204,18.166666666666668,307.6923076923077,19C333.3333333333333,19.833333333333332,343.5897435897436,2.166666666666667,369.2307692307692,3C394.87179487179486,3.833333333333333,405.12820512820514,22.166666666666668,430.7692307692308,23C456.4102564102564,23.833333333333332,466.6666666666667,6.166666666666667,492.3076923076923,7C517.948717948718,7.833333333333333,528.2051282051282,26.166666666666668,553.8461538461538,27C579.4871794871794,27.833333333333332,589.7435897435897,10.166666666666666,615.3846153846154,11C641.025641025641,11.833333333333334,651.2820512820513,30.166666666666668,676.9230769230769,31C702.5641025641025,31.833333333333332,712.8205128205128,14.166666666666666,738.4615384615385,15C764.1025641025641,15.833333333333334,787.1794871794872,30.833333333333332,800,35" transform="matrix(1,0,0,1,0,2820)"></path><path d="M10,10C20.73717948717949,10.208333333333334,37.98076923076923,14.125,61.53846153846154,11C85.09615384615384,7.875,97.43589743589745,-5.833333333333333,123.07692307692308,-5C148.71794871794873,-4.166666666666667,158.97435897435898,14.166666666666666,184.6153846153846,15C210.25641025641025,15.833333333333334,220.51282051282053,-1.8333333333333333,246.15384615384616,-1C271.7948717948718,-0.16666666666666674,282.05128205128204,18.166666666666668,307.6923076923077,19C333.3333333333333,19.833333333333332,343.5897435897436,2.166666666666667,369.2307692307692,3C394.87179487179486,3.833333333333333,405.12820512820514,22.166666666666668,430.7692307692308,23C456.4102564102564,23.833333333333332,466.6666666666667,6.166666666666667,492.3076923076923,7C517.948717948718,7.833333333333333,528.2051282051282,26.166666666666668,553.8461538461538,27C579.4871794871794,27.833333333333332,589.7435897435897,10.166666666666666,615.3846153846154,11C641.025641025641,11.833333333333334,651.2820512820513,30.166666666666668,676.9230769230769,31C702.5641025641025,31.833333333333332,712.8205128205128,14.166666666666666,738.4615384615385,15C764.1025641025641,15.833333333333334,787.1794871794872,30.833333333333332,800,35" transform="matrix(1,0,0,1,0,2773)"></path><path d="M10,10C20.73717948717949,10.208333333333334,37.98076923076923,14.125,61.53846153846154,11C85.09615384615384,7.875,97.43589743589745,-5.833333333333333,123.07692307692308,-5C148.71794871794873,-4.166666666666667,158.97435897435898,14.166666666666666,184.6153846153846,15C210.25641025641025,15.833333333333334,220.51282051282053,-1.8333333333333333,246.15384615384616,-1C271.7948717948718,-0.16666666666666674,282.05128205128204,18.166666666666668,307.6923076923077,19C333.3333333333333,19.833333333333332,343.5897435897436,2.166666666666667,369.2307692307692,3C394.87179487179486,3.833333333333333,405.12820512820514,22.166666666666668,430.7692307692308,23C456.4102564102564,23.833333333333332,466.6666666666667,6.166666666666667,492.3076923076923,7C517.948717948718,7.833333333333333,528.2051282051282,26.166666666666668,553.8461538461538,27C579.4871794871794,27.833333333333332,589.7435897435897,10.166666666666666,615.3846153846154,11C641.025641025641,11.833333333333334,651.2820512820513,30.166666666666668,676.9230769230769,31C702.5641025641025,31.833333333333332,712.8205128205128,14.166666666666666,738.4615384615385,15C764.1025641025641,15.833333333333334,787.1794871794872,30.833333333333332,800,35" transform="matrix(1,0,0,1,0,2726)"></path><path d="M10,10C20.73717948717949,10.208333333333334,37.98076923076923,14.125,61.53846153846154,11C85.09615384615384,7.875,97.43589743589745,-5.833333333333333,123.07692307692308,-5C148.71794871794873,-4.166666666666667,158.97435897435898,14.166666666666666,184.6153846153846,15C210.25641025641025,15.833333333333334,220.51282051282053,-1.8333333333333333,246.15384615384616,-1C271.7948717948718,-0.16666666666666674,282.05128205128204,18.166666666666668,307.6923076923077,19C333.3333333333333,19.833333333333332,343.5897435897436,2.166666666666667,369.2307692307692,3C394.87179487179486,3.833333333333333,405.12820512820514,22.166666666666668,430.7692307692308,23C456.4102564102564,23.833333333333332,466.6666666666667,6.166666666666667,492.3076923076923,7C517.948717948718,7.833333333333333,528.2051282051282,26.166666666666668,553.8461538461538,27C579.4871794871794,27.833333333333332,589.7435897435897,10.166666666666666,615.3846153846154,11C641.025641025641,11.833333333333334,651.2820512820513,30.166666666666668,676.9230769230769,31C702.5641025641025,31.833333333333332,712.8205128205128,14.166666666666666,738.4615384615385,15C764.1025641025641,15.833333333333334,787.1794871794872,30.833333333333332,800,35" transform="matrix(1,0,0,1,0,2679)"></path><path d="M10,10C20.73717948717949,10.208333333333334,37.98076923076923,14.125,61.53846153846154,11C85.09615384615384,7.875,97.43589743589745,-5.833333333333333,123.07692307692308,-5C148.71794871794873,-4.166666666666667,158.97435897435898,14.166666666666666,184.6153846153846,15C210.25641025641025,15.833333333333334,220.51282051282053,-1.8333333333333333,246.15384615384616,-1C271.7948717948718,-0.16666666666666674,282.05128205128204,18.166666666666668,307.6923076923077,19C333.3333333333333,19.833333333333332,343.5897435897436,2.166666666666667,369.2307692307692,3C394.87179487179486,3.833333333333333,405.12820512820514,22.166666666666668,430.7692307692308,23C456.4102564102564,23.833333333333332,466.6666666666667,6.166666666666667,492.3076923076923,7C517.948717948718,7.833333333333333,528.2051282051282,26.166666666666668,553.8461538461538,27C579.4871794871794,27.833333333333332,589.7435897435897,10.166666666666666,615.3846153846154,11C641.025641025641,11.833333333333334,651.2820512820513,30.166666666666668,676.9230769230769,31C702.5641025641025,31.833333333333332,712.8205128205128,14.166666666666666,738.4615384615385,15C764.1025641025641,15.833333333333334,787.1794871794872,30.833333333333332,800,35" transform="matrix(1,0,0,1,0,2632)"></path><path d="M10,10C20.73717948717949,10.208333333333334,37.98076923076923,14.125,61.53846153846154,11C85.09615384615384,7.875,97.43589743589745,-5.833333333333333,123.07692307692308,-5C148.71794871794873,-4.166666666666667,158.97435897435898,14.166666666666666,184.6153846153846,15C210.25641025641025,15.833333333333334,220.51282051282053,-1.8333333333333333,246.15384615384616,-1C271.7948717948718,-0.16666666666666674,282.05128205128204,18.166666666666668,307.6923076923077,19C333.3333333333333,19.833333333333332,343.5897435897436,2.166666666666667,369.2307692307692,3C394.87179487179486,3.833333333333333,405.12820512820514,22.166666666666668,430.7692307692308,23C456.4102564102564,23.833333333333332,466.6666666666667,6.166666666666667,492.3076923076923,7C517.948717948718,7.833333333333333,528.2051282051282,26.166666666666668,553.8461538461538,27C579.4871794871794,27.833333333333332,589.7435897435897,10.166666666666666,615.3846153846154,11C641.025641025641,11.833333333333334,651.2820512820513,30.166666666666668,676.9230769230769,31C702.5641025641025,31.833333333333332,712.8205128205128,14.166666666666666,738.4615384615385,15C764.1025641025641,15.833333333333334,787.1794871794872,30.833333333333332,800,35" transform="matrix(1,0,0,1,0,2585)"></path><path d="M10,10C20.73717948717949,10.208333333333334,37.98076923076923,14.125,61.53846153846154,11C85.09615384615384,7.875,97.43589743589745,-5.833333333333333,123.07692307692308,-5C148.71794871794873,-4.166666666666667,158.97435897435898,14.166666666666666,184.6153846153846,15C210.25641025641025,15.833333333333334,220.51282051282053,-1.8333333333333333,246.15384615384616,-1C271.7948717948718,-0.16666666666666674,282.05128205128204,18.166666666666668,307.6923076923077,19C333.3333333333333,19.833333333333332,343.5897435897436,2.166666666666667,369.2307692307692,3C394.87179487179486,3.833333333333333,405.12820512820514,22.166666666666668,430.7692307692308,23C456.4102564102564,23.833333333333332,466.6666666666667,6.166666666666667,492.3076923076923,7C517.948717948718,7.833333333333333,528.2051282051282,26.166666666666668,553.8461538461538,27C579.4871794871794,27.833333333333332,589.7435897435897,10.166666666666666,615.3846153846154,11C641.025641025641,11.833333333333334,651.2820512820513,30.166666666666668,676.9230769230769,31C702.5641025641025,31.833333333333332,712.8205128205128,14.166666666666666,738.4615384615385,15C764.1025641025641,15.833333333333334,787.1794871794872,30.833333333333332,800,35" transform="matrix(1,0,0,1,0,2538)"></path><path d="M10,10C20.73717948717949,10.208333333333334,37.98076923076923,14.125,61.53846153846154,11C85.09615384615384,7.875,97.43589743589745,-5.833333333333333,123.07692307692308,-5C148.71794871794873,-4.166666666666667,158.97435897435898,14.166666666666666,184.6153846153846,15C210.25641025641025,15.833333333333334,220.51282051282053,-1.8333333333333333,246.15384615384616,-1C271.7948717948718,-0.16666666666666674,282.05128205128204,18.166666666666668,307.6923076923077,19C333.3333333333333,19.833333333333332,343.5897435897436,2.166666666666667,369.2307692307692,3C394.87179487179486,3.833333333333333,405.12820512820514,22.166666666666668,430.7692307692308,23C456.4102564102564,23.833333333333332,466.6666666666667,6.166666666666667,492.3076923076923,7C517.948717948718,7.833333333333333,528.2051282051282,26.166666666666668,553.8461538461538,27C579.4871794871794,27.833333333333332,589.7435897435897,10.166666666666666,615.3846153846154,11C641.025641025641,11.833333333333334,651.2820512820513,30.166666666666668,676.9230769230769,31C702.5641025641025,31.833333333333332,712.8205128205128,14.166666666666666,738.4615384615385,15C764.1025641025641,15.833333333333334,787.1794871794872,30.833333333333332,800,35" transform="matrix(1,0,0,1,0,2491)"></path><path d="M10,10C20.73717948717949,10.208333333333334,37.98076923076923,14.125,61.53846153846154,11C85.09615384615384,7.875,97.43589743589745,-5.833333333333333,123.07692307692308,-5C148.71794871794873,-4.166666666666667,158.97435897435898,14.166666666666666,184.6153846153846,15C210.25641025641025,15.833333333333334,220.51282051282053,-1.8333333333333333,246.15384615384616,-1C271.7948717948718,-0.16666666666666674,282.05128205128204,18.166666666666668,307.6923076923077,19C333.3333333333333,19.833333333333332,343.5897435897436,2.166666666666667,369.2307692307692,3C394.87179487179486,3.833333333333333,405.12820512820514,22.166666666666668,430.7692307692308,23C456.4102564102564,23.833333333333332,466.6666666666667,6.166666666666667,492.3076923076923,7C517.948717948718,7.833333333333333,528.2051282051282,26.166666666666668,553.8461538461538,27C579.4871794871794,27.833333333333332,589.7435897435897,10.166666666666666,615.3846153846154,11C641.025641025641,11.833333333333334,651.2820512820513,30.166666666666668,676.9230769230769,31C702.5641025641025,31.833333333333332,712.8205128205128,14.166666666666666,738.4615384615385,15C764.1025641025641,15.833333333333334,787.1794871794872,30.833333333333332,800,35" transform="matrix(1,0,0,1,0,2444)"></path><path d="M10,10C20.73717948717949,10.208333333333334,37.98076923076923,14.125,61.53846153846154,11C85.09615384615384,7.875,97.43589743589745,-5.833333333333333,123.07692307692308,-5C148.71794871794873,-4.166666666666667,158.97435897435898,14.166666666666666,184.6153846153846,15C210.25641025641025,15.833333333333334,220.51282051282053,-1.8333333333333333,246.15384615384616,-1C271.7948717948718,-0.16666666666666674,282.05128205128204,18.166666666666668,307.6923076923077,19C333.3333333333333,19.833333333333332,343.5897435897436,2.166666666666667,369.2307692307692,3C394.87179487179486,3.833333333333333,405.12820512820514,22.166666666666668,430.7692307692308,23C456.4102564102564,23.833333333333332,466.6666666666667,6.166666666666667,492.3076923076923,7C517.948717948718,7.833333333333333,528.2051282051282,26.166666666666668,553.8461538461538,27C579.4871794871794,27.833333333333332,589.7435897435897,10.166666666666666,615.3846153846154,11C641.025641025641,11.833333333333334,651.2820512820513,30.166666666666668,676.9230769230769,31C702.5641025641025,31.833333333333332,712.8205128205128,14.166666666666666,738.4615384615385,15C764.1025641025641,15.833333333333334,787.1794871794872,30.833333333333332,800,35" transform="matrix(1,0,0,1,0,2397)"></path><path d="M10,10C20.73717948717949,10.208333333333334,37.98076923076923,14.125,61.53846153846154,11C85.09615384615384,7.875,97.43589743589745,-5.833333333333333,123.07692307692308,-5C148.71794871794873,-4.166666666666667,158.97435897435898,14.166666666666666,184.6153846153846,15C210.25641025641025,15.833333333333334,220.51282051282053,-1.8333333333333333,246.15384615384616,-1C271.7948717948718,-0.16666666666666674,282.05128205128204,18.166666666666668,307.6923076923077,19C333.3333333333333,19.833333333333332,343.5897435897436,2.166666666666667,369.2307692307692,3C394.87179487179486,3.833333333333333,405.12820512820514,22.166666666666668,430.7692307692308,23C456.4102564102564,23.833333333333332,466.6666666666667,6.166666666666667,492.3076923076923,7C517.948717948718,7.833333333333333,528.2051282051282,26.166666666666668,553.8461538461538,27C579.4871794871794,27.833333333333332,589.7435897435897,10.166666666666666,615.3846153846154,11C641.025641025641,11.833333333333334,651.2820512820513,30.166666666666668,676.9230769230769,31C702.5641025641025,31.833333333333332,712.8205128205128,14.166666666666666,738.4615384615385,15C764.1025641025641,15.833333333333334,787.1794871794872,30.833333333333332,800,35" transform="matrix(1,0,0,1,0,2350)"></path><path d="M10,10C20.73717948717949,10.208333333333334,37.98076923076923,14.125,61.53846153846154,11C85.09615384615384,7.875,97.43589743589745,-5.833333333333333,123.07692307692308,-5C148.71794871794873,-4.166666666666667,158.97435897435898,14.166666666666666,184.6153846153846,15C210.25641025641025,15.833333333333334,220.51282051282053,-1.8333333333333333,246.15384615384616,-1C271.7948717948718,-0.16666666666666674,282.05128205128204,18.166666666666668,307.6923076923077,19C333.3333333333333,19.833333333333332,343.5897435897436,2.166666666666667,369.2307692307692,3C394.87179487179486,3.833333333333333,405.12820512820514,22.166666666666668,430.7692307692308,23C456.4102564102564,23.833333333333332,466.6666666666667,6.166666666666667,492.3076923076923,7C517.948717948718,7.833333333333333,528.2051282051282,26.166666666666668,553.8461538461538,27C579.4871794871794,27.833333333333332,589.7435897435897,10.166666666666666,615.3846153846154,11C641.025641025641,11.833333333333334,651.2820512820513,30.166666666666668,676.9230769230769,31C702.5641025641025,31.833333333333332,712.8205128205128,14.166666666666666,738.4615384615385,15C764.1025641025641,15.833333333333334,787.1794871794872,30.833333333333332,800,35" transform="matrix(1,0,0,1,0,2303)"></path><path d="M10,10C20.73717948717949,10.208333333333334,37.98076923076923,14.125,61.53846153846154,11C85.09615384615384,7.875,97.43589743589745,-5.833333333333333,123.07692307692308,-5C148.71794871794873,-4.166666666666667,158.97435897435898,14.166666666666666,184.6153846153846,15C210.25641025641025,15.833333333333334,220.51282051282053,-1.8333333333333333,246.15384615384616,-1C271.7948717948718,-0.16666666666666674,282.05128205128204,18.166666666666668,307.6923076923077,19C333.3333333333333,19.833333333333332,343.5897435897436,2.166666666666667,369.2307692307692,3C394.87179487179486,3.833333333333333,405.12820512820514,22.166666666666668,430.7692307692308,23C456.4102564102564,23.833333333333332,466.6666666666667,6.166666666666667,492.3076923076923,7C517.948717948718,7.833333333333333,528.2051282051282,26.166666666666668,553.8461538461538,27C579.4871794871794,27.833333333333332,589.7435897435897,10.166666666666666,615.3846153846154,11C641.025641025641,11.833333333333334,651.2820512820513,30.166666666666668,676.9230769230769,31C702.5641025641025,31.833333333333332,712.8205128205128,14.166666666666666,738.4615384615385,15C764.1025641025641,15.833333333333334,787.1794871794872,30.833333333333332,800,35" transform="matrix(1,0,0,1,0,2256)"></path><path d="M10,10C20.73717948717949,10.208333333333334,37.98076923076923,14.125,61.53846153846154,11C85.09615384615384,7.875,97.43589743589745,-5.833333333333333,123.07692307692308,-5C148.71794871794873,-4.166666666666667,158.97435897435898,14.166666666666666,184.6153846153846,15C210.25641025641025,15.833333333333334,220.51282051282053,-1.8333333333333333,246.15384615384616,-1C271.7948717948718,-0.16666666666666674,282.05128205128204,18.166666666666668,307.6923076923077,19C333.3333333333333,19.833333333333332,343.5897435897436,2.166666666666667,369.2307692307692,3C394.87179487179486,3.833333333333333,405.12820512820514,22.166666666666668,430.7692307692308,23C456.4102564102564,23.833333333333332,466.6666666666667,6.166666666666667,492.3076923076923,7C517.948717948718,7.833333333333333,528.2051282051282,26.166666666666668,553.8461538461538,27C579.4871794871794,27.833333333333332,589.7435897435897,10.166666666666666,615.3846153846154,11C641.025641025641,11.833333333333334,651.2820512820513,30.166666666666668,676.9230769230769,31C702.5641025641025,31.833333333333332,712.8205128205128,14.166666666666666,738.4615384615385,15C764.1025641025641,15.833333333333334,787.1794871794872,30.833333333333332,800,35" transform="matrix(1,0,0,1,0,2209)"></path><path d="M10,10C20.73717948717949,10.208333333333334,37.98076923076923,14.125,61.53846153846154,11C85.09615384615384,7.875,97.43589743589745,-5.833333333333333,123.07692307692308,-5C148.71794871794873,-4.166666666666667,158.97435897435898,14.166666666666666,184.6153846153846,15C210.25641025641025,15.833333333333334,220.51282051282053,-1.8333333333333333,246.15384615384616,-1C271.7948717948718,-0.16666666666666674,282.05128205128204,18.166666666666668,307.6923076923077,19C333.3333333333333,19.833333333333332,343.5897435897436,2.166666666666667,369.2307692307692,3C394.87179487179486,3.833333333333333,405.12820512820514,22.166666666666668,430.7692307692308,23C456.4102564102564,23.833333333333332,466.6666666666667,6.166666666666667,492.3076923076923,7C517.948717948718,7.833333333333333,528.2051282051282,26.166666666666668,553.8461538461538,27C579.4871794871794,27.833333333333332,589.7435897435897,10.166666666666666,615.3846153846154,11C641.025641025641,11.833333333333334,651.2820512820513,30.166666666666668,676.9230769230769,31C702.5641025641025,31.833333333333332,712.8205128205128,14.166666666666666,738.4615384615385,15C764.1025641025641,15.833333333333334,787.1794871794872,30.833333333333332,800,35" transform="matrix(1,0,0,1,0,2162)"></path><path d="M10,10C20.73717948717949,10.208333333333334,37.98076923076923,14.125,61.53846153846154,11C85.09615384615384,7.875,97.43589743589745,-5.833333333333333,123.07692307692308,-5C148.71794871794873,-4.166666666666667,158.97435897435898,14.166666666666666,184.6153846153846,15C210.25641025641025,15.833333333333334,220.51282051282053,-1.8333333333333333,246.15384615384616,-1C271.7948717948718,-0.16666666666666674,282.05128205128204,18.166666666666668,307.6923076923077,19C333.3333333333333,19.833333333333332,343.5897435897436,2.166666666666667,369.2307692307692,3C394.87179487179486,3.833333333333333,405.12820512820514,22.166666666666668,430.7692307692308,23C456.4102564102564,23.833333333333332,466.6666666666667,6.166666666666667,492.3076923076923,7C517.948717948718,7.833333333333333,528.2051282051282,26.166666666666668,553.8461538461538,27C579.4871794871794,27.833333333333332,589.7435897435897,10.166666666666666,615.3846153846154,11C641.025641025641,11.833333333333334,651.2820512820513,30.166666666666668,676.9230769230769,31C702.5641025641025,31.833333333333332,712.8205128205128,14.166666666666666,738.4615384615385,15C764.1025641025641,15.833333333333334,787.1794871794872,30.833333333333332,800,35" transform="matrix(1,0,0,1,0,2115)"></path><path d="M10,10C20.73717948717949,10.208333333333334,37.98076923076923,14.125,61.53846153846154,11C85.09615384615384,7.875,97.43589743589745,-5.833333333333333,123.07692307692308,-5C148.71794871794873,-4.166666666666667,158.97435897435898,14.166666666666666,184.6153846153846,15C210.25641025641025,15.833333333333334,220.51282051282053,-1.8333333333333333,246.15384615384616,-1C271.7948717948718,-0.16666666666666674,282.05128205128204,18.166666666666668,307.6923076923077,19C333.3333333333333,19.833333333333332,343.5897435897436,2.166666666666667,369.2307692307692,3C394.87179487179486,3.833333333333333,405.12820512820514,22.166666666666668,430.7692307692308,23C456.4102564102564,23.833333333333332,466.6666666666667,6.166666666666667,492.3076923076923,7C517.948717948718,7.833333333333333,528.2051282051282,26.166666666666668,553.8461538461538,27C579.4871794871794,27.833333333333332,589.7435897435897,10.166666666666666,615.3846153846154,11C641.025641025641,11.833333333333334,651.2820512820513,30.166666666666668,676.9230769230769,31C702.5641025641025,31.833333333333332,712.8205128205128,14.166666666666666,738.4615384615385,15C764.1025641025641,15.833333333333334,787.1794871794872,30.833333333333332,800,35" transform="matrix(1,0,0,1,0,2068)"></path><path d="M10,10C20.73717948717949,10.208333333333334,37.98076923076923,14.125,61.53846153846154,11C85.09615384615384,7.875,97.43589743589745,-5.833333333333333,123.07692307692308,-5C148.71794871794873,-4.166666666666667,158.97435897435898,14.166666666666666,184.6153846153846,15C210.25641025641025,15.833333333333334,220.51282051282053,-1.8333333333333333,246.15384615384616,-1C271.7948717948718,-0.16666666666666674,282.05128205128204,18.166666666666668,307.6923076923077,19C333.3333333333333,19.833333333333332,343.5897435897436,2.166666666666667,369.2307692307692,3C394.87179487179486,3.833333333333333,405.12820512820514,22.166666666666668,430.7692307692308,23C456.4102564102564,23.833333333333332,466.6666666666667,6.166666666666667,492.3076923076923,7C517.948717948718,7.833333333333333,528.2051282051282,26.166666666666668,553.8461538461538,27C579.4871794871794,27.833333333333332,589.7435897435897,10.166666666666666,615.3846153846154,11C641.025641025641,11.833333333333334,651.2820512820513,30.166666666666668,676.9230769230769,31C702.5641025641025,31.833333333333332,712.8205128205128,14.166666666666666,738.4615384615385,15C764.1025641025641,15.833333333333334,787.1794871794872,30.833333333333332,800,35" transform="matrix(1,0,0,1,0,2021)"></path><path d="M10,10C20.73717948717949,10.208333333333334,37.98076923076923,14.125,61.53846153846154,11C85.09615384615384,7.875,97.43589743589745,-5.833333333333333,123.07692307692308,-5C148.71794871794873,-4.166666666666667,158.97435897435898,14.166666666666666,184.6153846153846,15C210.25641025641025,15.833333333333334,220.51282051282053,-1.8333333333333333,246.15384615384616,-1C271.7948717948718,-0.16666666666666674,282.05128205128204,18.166666666666668,307.6923076923077,19C333.3333333333333,19.833333333333332,343.5897435897436,2.166666666666667,369.2307692307692,3C394.87179487179486,3.833333333333333,405.12820512820514,22.166666666666668,430.7692307692308,23C456.4102564102564,23.833333333333332,466.6666666666667,6.166666666666667,492.3076923076923,7C517.948717948718,7.833333333333333,528.2051282051282,26.166666666666668,553.8461538461538,27C579.4871794871794,27.833333333333332,589.7435897435897,10.166666666666666,615.3846153846154,11C641.025641025641,11.833333333333334,651.2820512820513,30.166666666666668,676.9230769230769,31C702.5641025641025,31.833333333333332,712.8205128205128,14.166666666666666,738.4615384615385,15C764.1025641025641,15.833333333333334,787.1794871794872,30.833333333333332,800,35" transform="matrix(1,0,0,1,0,1974)"></path><path d="M10,10C20.73717948717949,10.208333333333334,37.98076923076923,14.125,61.53846153846154,11C85.09615384615384,7.875,97.43589743589745,-5.833333333333333,123.07692307692308,-5C148.71794871794873,-4.166666666666667,158.97435897435898,14.166666666666666,184.6153846153846,15C210.25641025641025,15.833333333333334,220.51282051282053,-1.8333333333333333,246.15384615384616,-1C271.7948717948718,-0.16666666666666674,282.05128205128204,18.166666666666668,307.6923076923077,19C333.3333333333333,19.833333333333332,343.5897435897436,2.166666666666667,369.2307692307692,3C394.87179487179486,3.833333333333333,405.12820512820514,22.166666666666668,430.7692307692308,23C456.4102564102564,23.833333333333332,466.6666666666667,6.166666666666667,492.3076923076923,7C517.948717948718,7.833333333333333,528.2051282051282,26.166666666666668,553.8461538461538,27C579.4871794871794,27.833333333333332,589.7435897435897,10.166666666666666,615.3846153846154,11C641.025641025641,11.833333333333334,651.2820512820513,30.166666666666668,676.9230769230769,31C702.5641025641025,31.833333333333332,712.8205128205128,14.166666666666666,738.4615384615385,15C764.1025641025641,15.833333333333334,787.1794871794872,30.833333333333332,800,35" transform="matrix(1,0,0,1,0,1927)"></path><path d="M10,10C20.73717948717949,10.208333333333334,37.98076923076923,14.125,61.53846153846154,11C85.09615384615384,7.875,97.43589743589745,-5.833333333333333,123.07692307692308,-5C148.71794871794873,-4.166666666666667,158.97435897435898,14.166666666666666,184.6153846153846,15C210.25641025641025,15.833333333333334,220.51282051282053,-1.8333333333333333,246.15384615384616,-1C271.7948717948718,-0.16666666666666674,282.05128205128204,18.166666666666668,307.6923076923077,19C333.3333333333333,19.833333333333332,343.5897435897436,2.166666666666667,369.2307692307692,3C394.87179487179486,3.833333333333333,405.12820512820514,22.166666666666668,430.7692307692308,23C456.4102564102564,23.833333333333332,466.6666666666667,6.166666666666667,492.3076923076923,7C517.948717948718,7.833333333333333,528.2051282051282,26.166666666666668,553.8461538461538,27C579.4871794871794,27.833333333333332,589.7435897435897,10.166666666666666,615.3846153846154,11C641.025641025641,11.833333333333334,651.2820512820513,30.166666666666668,676.9230769230769,31C702.5641025641025,31.833333333333332,712.8205128205128,14.166666666666666,738.4615384615385,15C764.1025641025641,15.833333333333334,787.1794871794872,30.833333333333332,800,35" transform="matrix(1,0,0,1,0,1880)"></path><path d="M10,10C20.73717948717949,10.208333333333334,37.98076923076923,14.125,61.53846153846154,11C85.09615384615384,7.875,97.43589743589745,-5.833333333333333,123.07692307692308,-5C148.71794871794873,-4.166666666666667,158.97435897435898,14.166666666666666,184.6153846153846,15C210.25641025641025,15.833333333333334,220.51282051282053,-1.8333333333333333,246.15384615384616,-1C271.7948717948718,-0.16666666666666674,282.05128205128204,18.166666666666668,307.6923076923077,19C333.3333333333333,19.833333333333332,343.5897435897436,2.166666666666667,369.2307692307692,3C394.87179487179486,3.833333333333333,405.12820512820514,22.166666666666668,430.7692307692308,23C456.4102564102564,23.833333333333332,466.6666666666667,6.166666666666667,492.3076923076923,7C517.948717948718,7.833333333333333,528.2051282051282,26.166666666666668,553.8461538461538,27C579.4871794871794,27.833333333333332,589.7435897435897,10.166666666666666,615.3846153846154,11C641.025641025641,11.833333333333334,651.2820512820513,30.166666666666668,676.9230769230769,31C702.5641025641025,31.833333333333332,712.8205128205128,14.166666666666666,738.4615384615385,15C764.1025641025641,15.833333333333334,787.1794871794872,30.833333333333332,800,35" transform="matrix(1,0,0,1,0,1833)"></path><path d="M10,10C20.73717948717949,10.208333333333334,37.98076923076923,14.125,61.53846153846154,11C85.09615384615384,7.875,97.43589743589745,-5.833333333333333,123.07692307692308,-5C148.71794871794873,-4.166666666666667,158.97435897435898,14.166666666666666,184.6153846153846,15C210.25641025641025,15.833333333333334,220.51282051282053,-1.8333333333333333,246.15384615384616,-1C271.7948717948718,-0.16666666666666674,282.05128205128204,18.166666666666668,307.6923076923077,19C333.3333333333333,19.833333333333332,343.5897435897436,2.166666666666667,369.2307692307692,3C394.87179487179486,3.833333333333333,405.12820512820514,22.166666666666668,430.7692307692308,23C456.4102564102564,23.833333333333332,466.6666666666667,6.166666666666667,492.3076923076923,7C517.948717948718,7.833333333333333,528.2051282051282,26.166666666666668,553.8461538461538,27C579.4871794871794,27.833333333333332,589.7435897435897,10.166666666666666,615.3846153846154,11C641.025641025641,11.833333333333334,651.2820512820513,30.166666666666668,676.9230769230769,31C702.5641025641025,31.833333333333332,712.8205128205128,14.166666666666666,738.4615384615385,15C764.1025641025641,15.833333333333334,787.1794871794872,30.833333333333332,800,35" transform="matrix(1,0,0,1,0,1786)"></path><path d="M10,10C20.73717948717949,10.208333333333334,37.98076923076923,14.125,61.53846153846154,11C85.09615384615384,7.875,97.43589743589745,-5.833333333333333,123.07692307692308,-5C148.71794871794873,-4.166666666666667,158.97435897435898,14.166666666666666,184.6153846153846,15C210.25641025641025,15.833333333333334,220.51282051282053,-1.8333333333333333,246.15384615384616,-1C271.7948717948718,-0.16666666666666674,282.05128205128204,18.166666666666668,307.6923076923077,19C333.3333333333333,19.833333333333332,343.5897435897436,2.166666666666667,369.2307692307692,3C394.87179487179486,3.833333333333333,405.12820512820514,22.166666666666668,430.7692307692308,23C456.4102564102564,23.833333333333332,466.6666666666667,6.166666666666667,492.3076923076923,7C517.948717948718,7.833333333333333,528.2051282051282,26.166666666666668,553.8461538461538,27C579.4871794871794,27.833333333333332,589.7435897435897,10.166666666666666,615.3846153846154,11C641.025641025641,11.833333333333334,651.2820512820513,30.166666666666668,676.9230769230769,31C702.5641025641025,31.833333333333332,712.8205128205128,14.166666666666666,738.4615384615385,15C764.1025641025641,15.833333333333334,787.1794871794872,30.833333333333332,800,35" transform="matrix(1,0,0,1,0,1739)"></path><path d="M10,10C20.73717948717949,10.208333333333334,37.98076923076923,14.125,61.53846153846154,11C85.09615384615384,7.875,97.43589743589745,-5.833333333333333,123.07692307692308,-5C148.71794871794873,-4.166666666666667,158.97435897435898,14.166666666666666,184.6153846153846,15C210.25641025641025,15.833333333333334,220.51282051282053,-1.8333333333333333,246.15384615384616,-1C271.7948717948718,-0.16666666666666674,282.05128205128204,18.166666666666668,307.6923076923077,19C333.3333333333333,19.833333333333332,343.5897435897436,2.166666666666667,369.2307692307692,3C394.87179487179486,3.833333333333333,405.12820512820514,22.166666666666668,430.7692307692308,23C456.4102564102564,23.833333333333332,466.6666666666667,6.166666666666667,492.3076923076923,7C517.948717948718,7.833333333333333,528.2051282051282,26.166666666666668,553.8461538461538,27C579.4871794871794,27.833333333333332,589.7435897435897,10.166666666666666,615.3846153846154,11C641.025641025641,11.833333333333334,651.2820512820513,30.166666666666668,676.9230769230769,31C702.5641025641025,31.833333333333332,712.8205128205128,14.166666666666666,738.4615384615385,15C764.1025641025641,15.833333333333334,787.1794871794872,30.833333333333332,800,35" transform="matrix(1,0,0,1,0,1692)"></path><path d="M10,10C20.73717948717949,10.208333333333334,37.98076923076923,14.125,61.53846153846154,11C85.09615384615384,7.875,97.43589743589745,-5.833333333333333,123.07692307692308,-5C148.71794871794873,-4.166666666666667,158.97435897435898,14.166666666666666,184.6153846153846,15C210.25641025641025,15.833333333333334,220.51282051282053,-1.8333333333333333,246.15384615384616,-1C271.7948717948718,-0.16666666666666674,282.05128205128204,18.166666666666668,307.6923076923077,19C333.3333333333333,19.833333333333332,343.5897435897436,2.166666666666667,369.2307692307692,3C394.87179487179486,3.833333333333333,405.12820512820514,22.166666666666668,430.7692307692308,23C456.4102564102564,23.833333333333332,466.6666666666667,6.166666666666667,492.3076923076923,7C517.948717948718,7.833333333333333,528.2051282051282,26.166666666666668,553.8461538461538,27C579.4871794871794,27.833333333333332,589.7435897435897,10.166666666666666,615.3846153846154,11C641.025641025641,11.833333333333334,651.2820512820513,30.166666666666668,676.9230769230769,31C702.5641025641025,31.833333333333332,712.8205128205128,14.166666666666666,738.4615384615385,15C764.1025641025641,15.833333333333334,787.1794871794872,30.833333333333332,800,35" transform="matrix(1,0,0,1,0,1645)"></path><path d="M10,10C20.73717948717949,10.208333333333334,37.98076923076923,14.125,61.53846153846154,11C85.09615384615384,7.875,97.43589743589745,-5.833333333333333,123.07692307692308,-5C148.71794871794873,-4.166666666666667,158.97435897435898,14.166666666666666,184.6153846153846,15C210.25641025641025,15.833333333333334,220.51282051282053,-1.8333333333333333,246.15384615384616,-1C271.7948717948718,-0.16666666666666674,282.05128205128204,18.166666666666668,307.6923076923077,19C333.3333333333333,19.833333333333332,343.5897435897436,2.166666666666667,369.2307692307692,3C394.87179487179486,3.833333333333333,405.12820512820514,22.166666666666668,430.7692307692308,23C456.4102564102564,23.833333333333332,466.6666666666667,6.166666666666667,492.3076923076923,7C517.948717948718,7.833333333333333,528.2051282051282,26.166666666666668,553.8461538461538,27C579.4871794871794,27.833333333333332,589.7435897435897,10.166666666666666,615.3846153846154,11C641.025641025641,11.833333333333334,651.2820512820513,30.166666666666668,676.9230769230769,31C702.5641025641025,31.833333333333332,712.8205128205128,14.166666666666666,738.4615384615385,15C764.1025641025641,15.833333333333334,787.1794871794872,30.833333333333332,800,35" transform="matrix(1,0,0,1,0,1598)"></path><path d="M10,10C20.73717948717949,10.208333333333334,37.98076923076923,14.125,61.53846153846154,11C85.09615384615384,7.875,97.43589743589745,-5.833333333333333,123.07692307692308,-5C148.71794871794873,-4.166666666666667,158.97435897435898,14.166666666666666,184.6153846153846,15C210.25641025641025,15.833333333333334,220.51282051282053,-1.8333333333333333,246.15384615384616,-1C271.7948717948718,-0.16666666666666674,282.05128205128204,18.166666666666668,307.6923076923077,19C333.3333333333333,19.833333333333332,343.5897435897436,2.166666666666667,369.2307692307692,3C394.87179487179486,3.833333333333333,405.12820512820514,22.166666666666668,430.7692307692308,23C456.4102564102564,23.833333333333332,466.6666666666667,6.166666666666667,492.3076923076923,7C517.948717948718,7.833333333333333,528.2051282051282,26.166666666666668,553.8461538461538,27C579.4871794871794,27.833333333333332,589.7435897435897,10.166666666666666,615.3846153846154,11C641.025641025641,11.833333333333334,651.2820512820513,30.166666666666668,676.9230769230769,31C702.5641025641025,31.833333333333332,712.8205128205128,14.166666666666666,738.4615384615385,15C764.1025641025641,15.833333333333334,787.1794871794872,30.833333333333332,800,35" transform="matrix(1,0,0,1,0,1551)"></path><path d="M10,10C20.73717948717949,10.208333333333334,37.98076923076923,14.125,61.53846153846154,11C85.09615384615384,7.875,97.43589743589745,-5.833333333333333,123.07692307692308,-5C148.71794871794873,-4.166666666666667,158.97435897435898,14.166666666666666,184.6153846153846,15C210.25641025641025,15.833333333333334,220.51282051282053,-1.8333333333333333,246.15384615384616,-1C271.7948717948718,-0.16666666666666674,282.05128205128204,18.166666666666668,307.6923076923077,19C333.3333333333333,19.833333333333332,343.5897435897436,2.166666666666667,369.2307692307692,3C394.87179487179486,3.833333333333333,405.12820512820514,22.166666666666668,430.7692307692308,23C456.4102564102564,23.833333333333332,466.6666666666667,6.166666666666667,492.3076923076923,7C517.948717948718,7.833333333333333,528.2051282051282,26.166666666666668,553.8461538461538,27C579.4871794871794,27.833333333333332,589.7435897435897,10.166666666666666,615.3846153846154,11C641.025641025641,11.833333333333334,651.2820512820513,30.166666666666668,676.9230769230769,31C702.5641025641025,31.833333333333332,712.8205128205128,14.166666666666666,738.4615384615385,15C764.1025641025641,15.833333333333334,787.1794871794872,30.833333333333332,800,35" transform="matrix(1,0,0,1,0,1504)"></path><path d="M10,10C20.73717948717949,10.208333333333334,37.98076923076923,14.125,61.53846153846154,11C85.09615384615384,7.875,97.43589743589745,-5.833333333333333,123.07692307692308,-5C148.71794871794873,-4.166666666666667,158.97435897435898,14.166666666666666,184.6153846153846,15C210.25641025641025,15.833333333333334,220.51282051282053,-1.8333333333333333,246.15384615384616,-1C271.7948717948718,-0.16666666666666674,282.05128205128204,18.166666666666668,307.6923076923077,19C333.3333333333333,19.833333333333332,343.5897435897436,2.166666666666667,369.2307692307692,3C394.87179487179486,3.833333333333333,405.12820512820514,22.166666666666668,430.7692307692308,23C456.4102564102564,23.833333333333332,466.6666666666667,6.166666666666667,492.3076923076923,7C517.948717948718,7.833333333333333,528.2051282051282,26.166666666666668,553.8461538461538,27C579.4871794871794,27.833333333333332,589.7435897435897,10.166666666666666,615.3846153846154,11C641.025641025641,11.833333333333334,651.2820512820513,30.166666666666668,676.9230769230769,31C702.5641025641025,31.833333333333332,712.8205128205128,14.166666666666666,738.4615384615385,15C764.1025641025641,15.833333333333334,787.1794871794872,30.833333333333332,800,35" transform="matrix(1,0,0,1,0,1457)"></path><path d="M10,10C20.73717948717949,10.208333333333334,37.98076923076923,14.125,61.53846153846154,11C85.09615384615384,7.875,97.43589743589745,-5.833333333333333,123.07692307692308,-5C148.71794871794873,-4.166666666666667,158.97435897435898,14.166666666666666,184.6153846153846,15C210.25641025641025,15.833333333333334,220.51282051282053,-1.8333333333333333,246.15384615384616,-1C271.7948717948718,-0.16666666666666674,282.05128205128204,18.166666666666668,307.6923076923077,19C333.3333333333333,19.833333333333332,343.5897435897436,2.166666666666667,369.2307692307692,3C394.87179487179486,3.833333333333333,405.12820512820514,22.166666666666668,430.7692307692308,23C456.4102564102564,23.833333333333332,466.6666666666667,6.166666666666667,492.3076923076923,7C517.948717948718,7.833333333333333,528.2051282051282,26.166666666666668,553.8461538461538,27C579.4871794871794,27.833333333333332,589.7435897435897,10.166666666666666,615.3846153846154,11C641.025641025641,11.833333333333334,651.2820512820513,30.166666666666668,676.9230769230769,31C702.5641025641025,31.833333333333332,712.8205128205128,14.166666666666666,738.4615384615385,15C764.1025641025641,15.833333333333334,787.1794871794872,30.833333333333332,800,35" transform="matrix(1,0,0,1,0,1410)"></path><path d="M10,10C20.73717948717949,10.208333333333334,37.98076923076923,14.125,61.53846153846154,11C85.09615384615384,7.875,97.43589743589745,-5.833333333333333,123.07692307692308,-5C148.71794871794873,-4.166666666666667,158.97435897435898,14.166666666666666,184.6153846153846,15C210.25641025641025,15.833333333333334,220.51282051282053,-1.8333333333333333,246.15384615384616,-1C271.7948717948718,-0.16666666666666674,282.05128205128204,18.166666666666668,307.6923076923077,19C333.3333333333333,19.833333333333332,343.5897435897436,2.166666666666667,369.2307692307692,3C394.87179487179486,3.833333333333333,405.12820512820514,22.166666666666668,430.7692307692308,23C456.4102564102564,23.833333333333332,466.6666666666667,6.166666666666667,492.3076923076923,7C517.948717948718,7.833333333333333,528.2051282051282,26.166666666666668,553.8461538461538,27C579.4871794871794,27.833333333333332,589.7435897435897,10.166666666666666,615.3846153846154,11C641.025641025641,11.833333333333334,651.2820512820513,30.166666666666668,676.9230769230769,31C702.5641025641025,31.833333333333332,712.8205128205128,14.166666666666666,738.4615384615385,15C764.1025641025641,15.833333333333334,787.1794871794872,30.833333333333332,800,35" transform="matrix(1,0,0,1,0,1363)"></path><path d="M10,10C20.73717948717949,10.208333333333334,37.98076923076923,14.125,61.53846153846154,11C85.09615384615384,7.875,97.43589743589745,-5.833333333333333,123.07692307692308,-5C148.71794871794873,-4.166666666666667,158.97435897435898,14.166666666666666,184.6153846153846,15C210.25641025641025,15.833333333333334,220.51282051282053,-1.8333333333333333,246.15384615384616,-1C271.7948717948718,-0.16666666666666674,282.05128205128204,18.166666666666668,307.6923076923077,19C333.3333333333333,19.833333333333332,343.5897435897436,2.166666666666667,369.2307692307692,3C394.87179487179486,3.833333333333333,405.12820512820514,22.166666666666668,430.7692307692308,23C456.4102564102564,23.833333333333332,466.6666666666667,6.166666666666667,492.3076923076923,7C517.948717948718,7.833333333333333,528.2051282051282,26.166666666666668,553.8461538461538,27C579.4871794871794,27.833333333333332,589.7435897435897,10.166666666666666,615.3846153846154,11C641.025641025641,11.833333333333334,651.2820512820513,30.166666666666668,676.9230769230769,31C702.5641025641025,31.833333333333332,712.8205128205128,14.166666666666666,738.4615384615385,15C764.1025641025641,15.833333333333334,787.1794871794872,30.833333333333332,800,35" transform="matrix(1,0,0,1,0,1316)"></path><path d="M10,10C20.73717948717949,10.208333333333334,37.98076923076923,14.125,61.53846153846154,11C85.09615384615384,7.875,97.43589743589745,-5.833333333333333,123.07692307692308,-5C148.71794871794873,-4.166666666666667,158.97435897435898,14.166666666666666,184.6153846153846,15C210.25641025641025,15.833333333333334,220.51282051282053,-1.8333333333333333,246.15384615384616,-1C271.7948717948718,-0.16666666666666674,282.05128205128204,18.166666666666668,307.6923076923077,19C333.3333333333333,19.833333333333332,343.5897435897436,2.166666666666667,369.2307692307692,3C394.87179487179486,3.833333333333333,405.12820512820514,22.166666666666668,430.7692307692308,23C456.4102564102564,23.833333333333332,466.6666666666667,6.166666666666667,492.3076923076923,7C517.948717948718,7.833333333333333,528.2051282051282,26.166666666666668,553.8461538461538,27C579.4871794871794,27.833333333333332,589.7435897435897,10.166666666666666,615.3846153846154,11C641.025641025641,11.833333333333334,651.2820512820513,30.166666666666668,676.9230769230769,31C702.5641025641025,31.833333333333332,712.8205128205128,14.166666666666666,738.4615384615385,15C764.1025641025641,15.833333333333334,787.1794871794872,30.833333333333332,800,35" transform="matrix(1,0,0,1,0,1269)"></path><path d="M10,10C20.73717948717949,10.208333333333334,37.98076923076923,14.125,61.53846153846154,11C85.09615384615384,7.875,97.43589743589745,-5.833333333333333,123.07692307692308,-5C148.71794871794873,-4.166666666666667,158.97435897435898,14.166666666666666,184.6153846153846,15C210.25641025641025,15.833333333333334,220.51282051282053,-1.8333333333333333,246.15384615384616,-1C271.7948717948718,-0.16666666666666674,282.05128205128204,18.166666666666668,307.6923076923077,19C333.3333333333333,19.833333333333332,343.5897435897436,2.166666666666667,369.2307692307692,3C394.87179487179486,3.833333333333333,405.12820512820514,22.166666666666668,430.7692307692308,23C456.4102564102564,23.833333333333332,466.6666666666667,6.166666666666667,492.3076923076923,7C517.948717948718,7.833333333333333,528.2051282051282,26.166666666666668,553.8461538461538,27C579.4871794871794,27.833333333333332,589.7435897435897,10.166666666666666,615.3846153846154,11C641.025641025641,11.833333333333334,651.2820512820513,30.166666666666668,676.9230769230769,31C702.5641025641025,31.833333333333332,712.8205128205128,14.166666666666666,738.4615384615385,15C764.1025641025641,15.833333333333334,787.1794871794872,30.833333333333332,800,35" transform="matrix(1,0,0,1,0,1222)"></path><path d="M10,10C20.73717948717949,10.208333333333334,37.98076923076923,14.125,61.53846153846154,11C85.09615384615384,7.875,97.43589743589745,-5.833333333333333,123.07692307692308,-5C148.71794871794873,-4.166666666666667,158.97435897435898,14.166666666666666,184.6153846153846,15C210.25641025641025,15.833333333333334,220.51282051282053,-1.8333333333333333,246.15384615384616,-1C271.7948717948718,-0.16666666666666674,282.05128205128204,18.166666666666668,307.6923076923077,19C333.3333333333333,19.833333333333332,343.5897435897436,2.166666666666667,369.2307692307692,3C394.87179487179486,3.833333333333333,405.12820512820514,22.166666666666668,430.7692307692308,23C456.4102564102564,23.833333333333332,466.6666666666667,6.166666666666667,492.3076923076923,7C517.948717948718,7.833333333333333,528.2051282051282,26.166666666666668,553.8461538461538,27C579.4871794871794,27.833333333333332,589.7435897435897,10.166666666666666,615.3846153846154,11C641.025641025641,11.833333333333334,651.2820512820513,30.166666666666668,676.9230769230769,31C702.5641025641025,31.833333333333332,712.8205128205128,14.166666666666666,738.4615384615385,15C764.1025641025641,15.833333333333334,787.1794871794872,30.833333333333332,800,35" transform="matrix(1,0,0,1,0,1175)"></path><path d="M10,10C20.73717948717949,10.208333333333334,37.98076923076923,14.125,61.53846153846154,11C85.09615384615384,7.875,97.43589743589745,-5.833333333333333,123.07692307692308,-5C148.71794871794873,-4.166666666666667,158.97435897435898,14.166666666666666,184.6153846153846,15C210.25641025641025,15.833333333333334,220.51282051282053,-1.8333333333333333,246.15384615384616,-1C271.7948717948718,-0.16666666666666674,282.05128205128204,18.166666666666668,307.6923076923077,19C333.3333333333333,19.833333333333332,343.5897435897436,2.166666666666667,369.2307692307692,3C394.87179487179486,3.833333333333333,405.12820512820514,22.166666666666668,430.7692307692308,23C456.4102564102564,23.833333333333332,466.6666666666667,6.166666666666667,492.3076923076923,7C517.948717948718,7.833333333333333,528.2051282051282,26.166666666666668,553.8461538461538,27C579.4871794871794,27.833333333333332,589.7435897435897,10.166666666666666,615.3846153846154,11C641.025641025641,11.833333333333334,651.2820512820513,30.166666666666668,676.9230769230769,31C702.5641025641025,31.833333333333332,712.8205128205128,14.166666666666666,738.4615384615385,15C764.1025641025641,15.833333333333334,787.1794871794872,30.833333333333332,800,35" transform="matrix(1,0,0,1,0,1128)"></path><path d="M10,10C20.73717948717949,10.208333333333334,37.98076923076923,14.125,61.53846153846154,11C85.09615384615384,7.875,97.43589743589745,-5.833333333333333,123.07692307692308,-5C148.71794871794873,-4.166666666666667,158.97435897435898,14.166666666666666,184.6153846153846,15C210.25641025641025,15.833333333333334,220.51282051282053,-1.8333333333333333,246.15384615384616,-1C271.7948717948718,-0.16666666666666674,282.05128205128204,18.166666666666668,307.6923076923077,19C333.3333333333333,19.833333333333332,343.5897435897436,2.166666666666667,369.2307692307692,3C394.87179487179486,3.833333333333333,405.12820512820514,22.166666666666668,430.7692307692308,23C456.4102564102564,23.833333333333332,466.6666666666667,6.166666666666667,492.3076923076923,7C517.948717948718,7.833333333333333,528.2051282051282,26.166666666666668,553.8461538461538,27C579.4871794871794,27.833333333333332,589.7435897435897,10.166666666666666,615.3846153846154,11C641.025641025641,11.833333333333334,651.2820512820513,30.166666666666668,676.9230769230769,31C702.5641025641025,31.833333333333332,712.8205128205128,14.166666666666666,738.4615384615385,15C764.1025641025641,15.833333333333334,787.1794871794872,30.833333333333332,800,35" transform="matrix(1,0,0,1,0,1081)"></path><path d="M10,10C20.73717948717949,10.208333333333334,37.98076923076923,14.125,61.53846153846154,11C85.09615384615384,7.875,97.43589743589745,-5.833333333333333,123.07692307692308,-5C148.71794871794873,-4.166666666666667,158.97435897435898,14.166666666666666,184.6153846153846,15C210.25641025641025,15.833333333333334,220.51282051282053,-1.8333333333333333,246.15384615384616,-1C271.7948717948718,-0.16666666666666674,282.05128205128204,18.166666666666668,307.6923076923077,19C333.3333333333333,19.833333333333332,343.5897435897436,2.166666666666667,369.2307692307692,3C394.87179487179486,3.833333333333333,405.12820512820514,22.166666666666668,430.7692307692308,23C456.4102564102564,23.833333333333332,466.6666666666667,6.166666666666667,492.3076923076923,7C517.948717948718,7.833333333333333,528.2051282051282,26.166666666666668,553.8461538461538,27C579.4871794871794,27.833333333333332,589.7435897435897,10.166666666666666,615.3846153846154,11C641.025641025641,11.833333333333334,651.2820512820513,30.166666666666668,676.9230769230769,31C702.5641025641025,31.833333333333332,712.8205128205128,14.166666666666666,738.4615384615385,15C764.1025641025641,15.833333333333334,787.1794871794872,30.833333333333332,800,35" transform="matrix(1,0,0,1,0,1034)"></path><path d="M10,10C20.73717948717949,10.208333333333334,37.98076923076923,14.125,61.53846153846154,11C85.09615384615384,7.875,97.43589743589745,-5.833333333333333,123.07692307692308,-5C148.71794871794873,-4.166666666666667,158.97435897435898,14.166666666666666,184.6153846153846,15C210.25641025641025,15.833333333333334,220.51282051282053,-1.8333333333333333,246.15384615384616,-1C271.7948717948718,-0.16666666666666674,282.05128205128204,18.166666666666668,307.6923076923077,19C333.3333333333333,19.833333333333332,343.5897435897436,2.166666666666667,369.2307692307692,3C394.87179487179486,3.833333333333333,405.12820512820514,22.166666666666668,430.7692307692308,23C456.4102564102564,23.833333333333332,466.6666666666667,6.166666666666667,492.3076923076923,7C517.948717948718,7.833333333333333,528.2051282051282,26.166666666666668,553.8461538461538,27C579.4871794871794,27.833333333333332,589.7435897435897,10.166666666666666,615.3846153846154,11C641.025641025641,11.833333333333334,651.2820512820513,30.166666666666668,676.9230769230769,31C702.5641025641025,31.833333333333332,712.8205128205128,14.166666666666666,738.4615384615385,15C764.1025641025641,15.833333333333334,787.1794871794872,30.833333333333332,800,35" transform="matrix(1,0,0,1,0,987)"></path><path d="M10,10C20.73717948717949,10.208333333333334,37.98076923076923,14.125,61.53846153846154,11C85.09615384615384,7.875,97.43589743589745,-5.833333333333333,123.07692307692308,-5C148.71794871794873,-4.166666666666667,158.97435897435898,14.166666666666666,184.6153846153846,15C210.25641025641025,15.833333333333334,220.51282051282053,-1.8333333333333333,246.15384615384616,-1C271.7948717948718,-0.16666666666666674,282.05128205128204,18.166666666666668,307.6923076923077,19C333.3333333333333,19.833333333333332,343.5897435897436,2.166666666666667,369.2307692307692,3C394.87179487179486,3.833333333333333,405.12820512820514,22.166666666666668,430.7692307692308,23C456.4102564102564,23.833333333333332,466.6666666666667,6.166666666666667,492.3076923076923,7C517.948717948718,7.833333333333333,528.2051282051282,26.166666666666668,553.8461538461538,27C579.4871794871794,27.833333333333332,589.7435897435897,10.166666666666666,615.3846153846154,11C641.025641025641,11.833333333333334,651.2820512820513,30.166666666666668,676.9230769230769,31C702.5641025641025,31.833333333333332,712.8205128205128,14.166666666666666,738.4615384615385,15C764.1025641025641,15.833333333333334,787.1794871794872,30.833333333333332,800,35" transform="matrix(1,0,0,1,0,940)"></path><path d="M10,10C20.73717948717949,10.208333333333334,37.98076923076923,14.125,61.53846153846154,11C85.09615384615384,7.875,97.43589743589745,-5.833333333333333,123.07692307692308,-5C148.71794871794873,-4.166666666666667,158.97435897435898,14.166666666666666,184.6153846153846,15C210.25641025641025,15.833333333333334,220.51282051282053,-1.8333333333333333,246.15384615384616,-1C271.7948717948718,-0.16666666666666674,282.05128205128204,18.166666666666668,307.6923076923077,19C333.3333333333333,19.833333333333332,343.5897435897436,2.166666666666667,369.2307692307692,3C394.87179487179486,3.833333333333333,405.12820512820514,22.166666666666668,430.7692307692308,23C456.4102564102564,23.833333333333332,466.6666666666667,6.166666666666667,492.3076923076923,7C517.948717948718,7.833333333333333,528.2051282051282,26.166666666666668,553.8461538461538,27C579.4871794871794,27.833333333333332,589.7435897435897,10.166666666666666,615.3846153846154,11C641.025641025641,11.833333333333334,651.2820512820513,30.166666666666668,676.9230769230769,31C702.5641025641025,31.833333333333332,712.8205128205128,14.166666666666666,738.4615384615385,15C764.1025641025641,15.833333333333334,787.1794871794872,30.833333333333332,800,35" transform="matrix(1,0,0,1,0,893)"></path><path d="M10,10C20.73717948717949,10.208333333333334,37.98076923076923,14.125,61.53846153846154,11C85.09615384615384,7.875,97.43589743589745,-5.833333333333333,123.07692307692308,-5C148.71794871794873,-4.166666666666667,158.97435897435898,14.166666666666666,184.6153846153846,15C210.25641025641025,15.833333333333334,220.51282051282053,-1.8333333333333333,246.15384615384616,-1C271.7948717948718,-0.16666666666666674,282.05128205128204,18.166666666666668,307.6923076923077,19C333.3333333333333,19.833333333333332,343.5897435897436,2.166666666666667,369.2307692307692,3C394.87179487179486,3.833333333333333,405.12820512820514,22.166666666666668,430.7692307692308,23C456.4102564102564,23.833333333333332,466.6666666666667,6.166666666666667,492.3076923076923,7C517.948717948718,7.833333333333333,528.2051282051282,26.166666666666668,553.8461538461538,27C579.4871794871794,27.833333333333332,589.7435897435897,10.166666666666666,615.3846153846154,11C641.025641025641,11.833333333333334,651.2820512820513,30.166666666666668,676.9230769230769,31C702.5641025641025,31.833333333333332,712.8205128205128,14.166666666666666,738.4615384615385,15C764.1025641025641,15.833333333333334,787.1794871794872,30.833333333333332,800,35" transform="matrix(1,0,0,1,0,846)"></path><path d="M10,10C20.73717948717949,10.208333333333334,37.98076923076923,14.125,61.53846153846154,11C85.09615384615384,7.875,97.43589743589745,-5.833333333333333,123.07692307692308,-5C148.71794871794873,-4.166666666666667,158.97435897435898,14.166666666666666,184.6153846153846,15C210.25641025641025,15.833333333333334,220.51282051282053,-1.8333333333333333,246.15384615384616,-1C271.7948717948718,-0.16666666666666674,282.05128205128204,18.166666666666668,307.6923076923077,19C333.3333333333333,19.833333333333332,343.5897435897436,2.166666666666667,369.2307692307692,3C394.87179487179486,3.833333333333333,405.12820512820514,22.166666666666668,430.7692307692308,23C456.4102564102564,23.833333333333332,466.6666666666667,6.166666666666667,492.3076923076923,7C517.948717948718,7.833333333333333,528.2051282051282,26.166666666666668,553.8461538461538,27C579.4871794871794,27.833333333333332,589.7435897435897,10.166666666666666,615.3846153846154,11C641.025641025641,11.833333333333334,651.2820512820513,30.166666666666668,676.9230769230769,31C702.5641025641025,31.833333333333332,712.8205128205128,14.166666666666666,738.4615384615385,15C764.1025641025641,15.833333333333334,787.1794871794872,30.833333333333332,800,35" transform="matrix(1,0,0,1,0,799)"></path><path d="M10,10C20.73717948717949,10.208333333333334,37.98076923076923,14.125,61.53846153846154,11C85.09615384615384,7.875,97.43589743589745,-5.833333333333333,123.07692307692308,-5C148.71794871794873,-4.166666666666667,158.97435897435898,14.166666666666666,184.6153846153846,15C210.25641025641025,15.833333333333334,220.51282051282053,-1.8333333333333333,246.15384615384616,-1C271.7948717948718,-0.16666666666666674,282.05128205128204,18.166666666666668,307.6923076923077,19C333.3333333333333,19.833333333333332,343.5897435897436,2.166666666666667,369.2307692307692,3C394.87179487179486,3.833333333333333,405.12820512820514,22.166666666666668,430.7692307692308,23C456.4102564102564,23.833333333333332,466.6666666666667,6.166666666666667,492.3076923076923,7C517.948717948718,7.833333333333333,528.2051282051282,26.166666666666668,553.8461538461538,27C579.4871794871794,27.833333333333332,589.7435897435897,10.166666666666666,615.3846153846154,11C641.025641025641,11.833333333333334,651.2820512820513,30.166666666666668,676.9230769230769,31C702.5641025641025,31.833333333333332,712.8205128205128,14.166666666666666,738.4615384615385,15C764.1025641025641,15.833333333333334,787.1794871794872,30.833333333333332,800,35" transform="matrix(1,0,0,1,0,752)"></path><path d="M10,10C20.73717948717949,10.208333333333334,37.98076923076923,14.125,61.53846153846154,11C85.09615384615384,7.875,97.43589743589745,-5.833333333333333,123.07692307692308,-5C148.71794871794873,-4.166666666666667,158.97435897435898,14.166666666666666,184.6153846153846,15C210.25641025641025,15.833333333333334,220.51282051282053,-1.8333333333333333,246.15384615384616,-1C271.7948717948718,-0.16666666666666674,282.05128205128204,18.166666666666668,307.6923076923077,19C333.3333333333333,19.833333333333332,343.5897435897436,2.166666666666667,369.2307692307692,3C394.87179487179486,3.833333333333333,405.12820512820514,22.166666666666668,430.7692307692308,23C456.4102564102564,23.833333333333332,466.6666666666667,6.166666666666667,492.3076923076923,7C517.948717948718,7.833333333333333,528.2051282051282,26.166666666666668,553.8461538461538,27C579.4871794871794,27.833333333333332,589.7435897435897,10.166666666666666,615.3846153846154,11C641.025641025641,11.833333333333334,651.2820512820513,30.166666666666668,676.9230769230769,31C702.5641025641025,31.833333333333332,712.8205128205128,14.166666666666666,738.4615384615385,15C764.1025641025641,15.833333333333334,787.1794871794872,30.833333333333332,800,35" transform="matrix(1,0,0,1,0,705)"></path><path d="M10,10C20.73717948717949,10.208333333333334,37.98076923076923,14.125,61.53846153846154,11C85.09615384615384,7.875,97.43589743589745,-5.833333333333333,123.07692307692308,-5C148.71794871794873,-4.166666666666667,158.97435897435898,14.166666666666666,184.6153846153846,15C210.25641025641025,15.833333333333334,220.51282051282053,-1.8333333333333333,246.15384615384616,-1C271.7948717948718,-0.16666666666666674,282.05128205128204,18.166666666666668,307.6923076923077,19C333.3333333333333,19.833333333333332,343.5897435897436,2.166666666666667,369.2307692307692,3C394.87179487179486,3.833333333333333,405.12820512820514,22.166666666666668,430.7692307692308,23C456.4102564102564,23.833333333333332,466.6666666666667,6.166666666666667,492.3076923076923,7C517.948717948718,7.833333333333333,528.2051282051282,26.166666666666668,553.8461538461538,27C579.4871794871794,27.833333333333332,589.7435897435897,10.166666666666666,615.3846153846154,11C641.025641025641,11.833333333333334,651.2820512820513,30.166666666666668,676.9230769230769,31C702.5641025641025,31.833333333333332,712.8205128205128,14.166666666666666,738.4615384615385,15C764.1025641025641,15.833333333333334,787.1794871794872,30.833333333333332,800,35" transform="matrix(1,0,0,1,0,658)"></path><path d="M10,10C20.73717948717949,10.208333333333334,37.98076923076923,14.125,61.53846153846154,11C85.09615384615384,7.875,97.43589743589745,-5.833333333333333,123.07692307692308,-5C148.71794871794873,-4.166666666666667,158.97435897435898,14.166666666666666,184.6153846153846,15C210.25641025641025,15.833333333333334,220.51282051282053,-1.8333333333333333,246.15384615384616,-1C271.7948717948718,-0.16666666666666674,282.05128205128204,18.166666666666668,307.6923076923077,19C333.3333333333333,19.833333333333332,343.5897435897436,2.166666666666667,369.2307692307692,3C394.87179487179486,3.833333333333333,405.12820512820514,22.166666666666668,430.7692307692308,23C456.4102564102564,23.833333333333332,466.6666666666667,6.166666666666667,492.3076923076923,7C517.948717948718,7.833333333333333,528.2051282051282,26.166666666666668,553.8461538461538,27C579.4871794871794,27.833333333333332,589.7435897435897,10.166666666666666,615.3846153846154,11C641.025641025641,11.833333333333334,651.2820512820513,30.166666666666668,676.9230769230769,31C702.5641025641025,31.833333333333332,712.8205128205128,14.166666666666666,738.4615384615385,15C764.1025641025641,15.833333333333334,787.1794871794872,30.833333333333332,800,35" transform="matrix(1,0,0,1,0,611)"></path><path d="M10,10C20.73717948717949,10.208333333333334,37.98076923076923,14.125,61.53846153846154,11C85.09615384615384,7.875,97.43589743589745,-5.833333333333333,123.07692307692308,-5C148.71794871794873,-4.166666666666667,158.97435897435898,14.166666666666666,184.6153846153846,15C210.25641025641025,15.833333333333334,220.51282051282053,-1.8333333333333333,246.15384615384616,-1C271.7948717948718,-0.16666666666666674,282.05128205128204,18.166666666666668,307.6923076923077,19C333.3333333333333,19.833333333333332,343.5897435897436,2.166666666666667,369.2307692307692,3C394.87179487179486,3.833333333333333,405.12820512820514,22.166666666666668,430.7692307692308,23C456.4102564102564,23.833333333333332,466.6666666666667,6.166666666666667,492.3076923076923,7C517.948717948718,7.833333333333333,528.2051282051282,26.166666666666668,553.8461538461538,27C579.4871794871794,27.833333333333332,589.7435897435897,10.166666666666666,615.3846153846154,11C641.025641025641,11.833333333333334,651.2820512820513,30.166666666666668,676.9230769230769,31C702.5641025641025,31.833333333333332,712.8205128205128,14.166666666666666,738.4615384615385,15C764.1025641025641,15.833333333333334,787.1794871794872,30.833333333333332,800,35" transform="matrix(1,0,0,1,0,564)"></path><path d="M10,10C20.73717948717949,10.208333333333334,37.98076923076923,14.125,61.53846153846154,11C85.09615384615384,7.875,97.43589743589745,-5.833333333333333,123.07692307692308,-5C148.71794871794873,-4.166666666666667,158.97435897435898,14.166666666666666,184.6153846153846,15C210.25641025641025,15.833333333333334,220.51282051282053,-1.8333333333333333,246.15384615384616,-1C271.7948717948718,-0.16666666666666674,282.05128205128204,18.166666666666668,307.6923076923077,19C333.3333333333333,19.833333333333332,343.5897435897436,2.166666666666667,369.2307692307692,3C394.87179487179486,3.833333333333333,405.12820512820514,22.166666666666668,430.7692307692308,23C456.4102564102564,23.833333333333332,466.6666666666667,6.166666666666667,492.3076923076923,7C517.948717948718,7.833333333333333,528.2051282051282,26.166666666666668,553.8461538461538,27C579.4871794871794,27.833333333333332,589.7435897435897,10.166666666666666,615.3846153846154,11C641.025641025641,11.833333333333334,651.2820512820513,30.166666666666668,676.9230769230769,31C702.5641025641025,31.833333333333332,712.8205128205128,14.166666666666666,738.4615384615385,15C764.1025641025641,15.833333333333334,787.1794871794872,30.833333333333332,800,35" transform="matrix(1,0,0,1,0,517)"></path><path d="M10,10C20.73717948717949,10.208333333333334,37.98076923076923,14.125,61.53846153846154,11C85.09615384615384,7.875,97.43589743589745,-5.833333333333333,123.07692307692308,-5C148.71794871794873,-4.166666666666667,158.97435897435898,14.166666666666666,184.6153846153846,15C210.25641025641025,15.833333333333334,220.51282051282053,-1.8333333333333333,246.15384615384616,-1C271.7948717948718,-0.16666666666666674,282.05128205128204,18.166666666666668,307.6923076923077,19C333.3333333333333,19.833333333333332,343.5897435897436,2.166666666666667,369.2307692307692,3C394.87179487179486,3.833333333333333,405.12820512820514,22.166666666666668,430.7692307692308,23C456.4102564102564,23.833333333333332,466.6666666666667,6.166666666666667,492.3076923076923,7C517.948717948718,7.833333333333333,528.2051282051282,26.166666666666668,553.8461538461538,27C579.4871794871794,27.833333333333332,589.7435897435897,10.166666666666666,615.3846153846154,11C641.025641025641,11.833333333333334,651.2820512820513,30.166666666666668,676.9230769230769,31C702.5641025641025,31.833333333333332,712.8205128205128,14.166666666666666,738.4615384615385,15C764.1025641025641,15.833333333333334,787.1794871794872,30.833333333333332,800,35" transform="matrix(1,0,0,1,0,470)"></path><path d="M10,10C20.73717948717949,10.208333333333334,37.98076923076923,14.125,61.53846153846154,11C85.09615384615384,7.875,97.43589743589745,-5.833333333333333,123.07692307692308,-5C148.71794871794873,-4.166666666666667,158.97435897435898,14.166666666666666,184.6153846153846,15C210.25641025641025,15.833333333333334,220.51282051282053,-1.8333333333333333,246.15384615384616,-1C271.7948717948718,-0.16666666666666674,282.05128205128204,18.166666666666668,307.6923076923077,19C333.3333333333333,19.833333333333332,343.5897435897436,2.166666666666667,369.2307692307692,3C394.87179487179486,3.833333333333333,405.12820512820514,22.166666666666668,430.7692307692308,23C456.4102564102564,23.833333333333332,466.6666666666667,6.166666666666667,492.3076923076923,7C517.948717948718,7.833333333333333,528.2051282051282,26.166666666666668,553.8461538461538,27C579.4871794871794,27.833333333333332,589.7435897435897,10.166666666666666,615.3846153846154,11C641.025641025641,11.833333333333334,651.2820512820513,30.166666666666668,676.9230769230769,31C702.5641025641025,31.833333333333332,712.8205128205128,14.166666666666666,738.4615384615385,15C764.1025641025641,15.833333333333334,787.1794871794872,30.833333333333332,800,35" transform="matrix(1,0,0,1,0,423)"></path><path d="M10,10C20.73717948717949,10.208333333333334,37.98076923076923,14.125,61.53846153846154,11C85.09615384615384,7.875,97.43589743589745,-5.833333333333333,123.07692307692308,-5C148.71794871794873,-4.166666666666667,158.97435897435898,14.166666666666666,184.6153846153846,15C210.25641025641025,15.833333333333334,220.51282051282053,-1.8333333333333333,246.15384615384616,-1C271.7948717948718,-0.16666666666666674,282.05128205128204,18.166666666666668,307.6923076923077,19C333.3333333333333,19.833333333333332,343.5897435897436,2.166666666666667,369.2307692307692,3C394.87179487179486,3.833333333333333,405.12820512820514,22.166666666666668,430.7692307692308,23C456.4102564102564,23.833333333333332,466.6666666666667,6.166666666666667,492.3076923076923,7C517.948717948718,7.833333333333333,528.2051282051282,26.166666666666668,553.8461538461538,27C579.4871794871794,27.833333333333332,589.7435897435897,10.166666666666666,615.3846153846154,11C641.025641025641,11.833333333333334,651.2820512820513,30.166666666666668,676.9230769230769,31C702.5641025641025,31.833333333333332,712.8205128205128,14.166666666666666,738.4615384615385,15C764.1025641025641,15.833333333333334,787.1794871794872,30.833333333333332,800,35" transform="matrix(1,0,0,1,0,376)"></path><path d="M10,10C20.73717948717949,10.208333333333334,37.98076923076923,14.125,61.53846153846154,11C85.09615384615384,7.875,97.43589743589745,-5.833333333333333,123.07692307692308,-5C148.71794871794873,-4.166666666666667,158.97435897435898,14.166666666666666,184.6153846153846,15C210.25641025641025,15.833333333333334,220.51282051282053,-1.8333333333333333,246.15384615384616,-1C271.7948717948718,-0.16666666666666674,282.05128205128204,18.166666666666668,307.6923076923077,19C333.3333333333333,19.833333333333332,343.5897435897436,2.166666666666667,369.2307692307692,3C394.87179487179486,3.833333333333333,405.12820512820514,22.166666666666668,430.7692307692308,23C456.4102564102564,23.833333333333332,466.6666666666667,6.166666666666667,492.3076923076923,7C517.948717948718,7.833333333333333,528.2051282051282,26.166666666666668,553.8461538461538,27C579.4871794871794,27.833333333333332,589.7435897435897,10.166666666666666,615.3846153846154,11C641.025641025641,11.833333333333334,651.2820512820513,30.166666666666668,676.9230769230769,31C702.5641025641025,31.833333333333332,712.8205128205128,14.166666666666666,738.4615384615385,15C764.1025641025641,15.833333333333334,787.1794871794872,30.833333333333332,800,35" transform="matrix(1,0,0,1,0,329)"></path><path d="M10,10C20.73717948717949,10.208333333333334,37.98076923076923,14.125,61.53846153846154,11C85.09615384615384,7.875,97.43589743589745,-5.833333333333333,123.07692307692308,-5C148.71794871794873,-4.166666666666667,158.97435897435898,14.166666666666666,184.6153846153846,15C210.25641025641025,15.833333333333334,220.51282051282053,-1.8333333333333333,246.15384615384616,-1C271.7948717948718,-0.16666666666666674,282.05128205128204,18.166666666666668,307.6923076923077,19C333.3333333333333,19.833333333333332,343.5897435897436,2.166666666666667,369.2307692307692,3C394.87179487179486,3.833333333333333,405.12820512820514,22.166666666666668,430.7692307692308,23C456.4102564102564,23.833333333333332,466.6666666666667,6.166666666666667,492.3076923076923,7C517.948717948718,7.833333333333333,528.2051282051282,26.166666666666668,553.8461538461538,27C579.4871794871794,27.833333333333332,589.7435897435897,10.166666666666666,615.3846153846154,11C641.025641025641,11.833333333333334,651.2820512820513,30.166666666666668,676.9230769230769,31C702.5641025641025,31.833333333333332,712.8205128205128,14.166666666666666,738.4615384615385,15C764.1025641025641,15.833333333333334,787.1794871794872,30.833333333333332,800,35" transform="matrix(1,0,0,1,0,282)"></path><path d="M10,10C20.73717948717949,10.208333333333334,37.98076923076923,14.125,61.53846153846154,11C85.09615384615384,7.875,97.43589743589745,-5.833333333333333,123.07692307692308,-5C148.71794871794873,-4.166666666666667,158.97435897435898,14.166666666666666,184.6153846153846,15C210.25641025641025,15.833333333333334,220.51282051282053,-1.8333333333333333,246.15384615384616,-1C271.7948717948718,-0.16666666666666674,282.05128205128204,18.166666666666668,307.6923076923077,19C333.3333333333333,19.833333333333332,343.5897435897436,2.166666666666667,369.2307692307692,3C394.87179487179486,3.833333333333333,405.12820512820514,22.166666666666668,430.7692307692308,23C456.4102564102564,23.833333333333332,466.6666666666667,6.166666666666667,492.3076923076923,7C517.948717948718,7.833333333333333,528.2051282051282,26.166666666666668,553.8461538461538,27C579.4871794871794,27.833333333333332,589.7435897435897,10.166666666666666,615.3846153846154,11C641.025641025641,11.833333333333334,651.2820512820513,30.166666666666668,676.9230769230769,31C702.5641025641025,31.833333333333332,712.8205128205128,14.166666666666666,738.4615384615385,15C764.1025641025641,15.833333333333334,787.1794871794872,30.833333333333332,800,35" transform="matrix(1,0,0,1,0,235)"></path><path d="M10,10C20.73717948717949,10.208333333333334,37.98076923076923,14.125,61.53846153846154,11C85.09615384615384,7.875,97.43589743589745,-5.833333333333333,123.07692307692308,-5C148.71794871794873,-4.166666666666667,158.97435897435898,14.166666666666666,184.6153846153846,15C210.25641025641025,15.833333333333334,220.51282051282053,-1.8333333333333333,246.15384615384616,-1C271.7948717948718,-0.16666666666666674,282.05128205128204,18.166666666666668,307.6923076923077,19C333.3333333333333,19.833333333333332,343.5897435897436,2.166666666666667,369.2307692307692,3C394.87179487179486,3.833333333333333,405.12820512820514,22.166666666666668,430.7692307692308,23C456.4102564102564,23.833333333333332,466.6666666666667,6.166666666666667,492.3076923076923,7C517.948717948718,7.833333333333333,528.2051282051282,26.166666666666668,553.8461538461538,27C579.4871794871794,27.833333333333332,589.7435897435897,10.166666666666666,615.3846153846154,11C641.025641025641,11.833333333333334,651.2820512820513,30.166666666666668,676.9230769230769,31C702.5641025641025,31.833333333333332,712.8205128205128,14.166666666666666,738.4615384615385,15C764.1025641025641,15.833333333333334,787.1794871794872,30.833333333333332,800,35" transform="matrix(1,0,0,1,0,188)"></path><path d="M10,10C20.73717948717949,10.208333333333334,37.98076923076923,14.125,61.53846153846154,11C85.09615384615384,7.875,97.43589743589745,-5.833333333333333,123.07692307692308,-5C148.71794871794873,-4.166666666666667,158.97435897435898,14.166666666666666,184.6153846153846,15C210.25641025641025,15.833333333333334,220.51282051282053,-1.8333333333333333,246.15384615384616,-1C271.7948717948718,-0.16666666666666674,282.05128205128204,18.166666666666668,307.6923076923077,19C333.3333333333333,19.833333333333332,343.5897435897436,2.166666666666667,369.2307692307692,3C394.87179487179486,3.833333333333333,405.12820512820514,22.166666666666668,430.7692307692308,23C456.4102564102564,23.833333333333332,466.6666666666667,6.166666666666667,492.3076923076923,7C517.948717948718,7.833333333333333,528.2051282051282,26.166666666666668,553.8461538461538,27C579.4871794871794,27.833333333333332,589.7435897435897,10.166666666666666,615.3846153846154,11C641.025641025641,11.833333333333334,651.2820512820513,30.166666666666668,676.9230769230769,31C702.5641025641025,31.833333333333332,712.8205128205128,14.166666666666666,738.4615384615385,15C764.1025641025641,15.833333333333334,787.1794871794872,30.833333333333332,800,35" transform="matrix(1,0,0,1,0,141)"></path><path d="M10,10C20.73717948717949,10.208333333333334,37.98076923076923,14.125,61.53846153846154,11C85.09615384615384,7.875,97.43589743589745,-5.833333333333333,123.07692307692308,-5C148.71794871794873,-4.166666666666667,158.97435897435898,14.166666666666666,184.6153846153846,15C210.25641025641025,15.833333333333334,220.51282051282053,-1.8333333333333333,246.15384615384616,-1C271.7948717948718,-0.16666666666666674,282.05128205128204,18.166666666666668,307.6923076923077,19C333.3333333333333,19.833333333333332,343.5897435897436,2.166666666666667,369.2307692307692,3C394.87179487179486,3.833333333333333,405.12820512820514,22.166666666666668,430.7692307692308,23C456.4102564102564,23.833333333333332,466.6666666666667,6.166666666666667,492.3076923076923,7C517.948717948718,7.833333333333333,528.2051282051282,26.166666666666668,553.8461538461538,27C579.4871794871794,27.833333333333332,589.7435897435897,10.166666666666666,615.3846153846154,11C641.025641025641,11.833333333333334,651.2820512820513,30.166666666666668,676.9230769230769,31C702.5641025641025,31.833333333333332,712.8205128205128,14.166666666666666,738.4615384615385,15C764.1025641025641,15.833333333333334,787.1794871794872,30.833333333333332,800,35" transform="matrix(1,0,0,1,0,94)"></path><path d="M10,10C20.73717948717949,10.208333333333334,37.98076923076923,14.125,61.53846153846154,11C85.09615384615384,7.875,97.43589743589745,-5.833333333333333,123.07692307692308,-5C148.71794871794873,-4.166666666666667,158.97435897435898,14.166666666666666,184.6153846153846,15C210.25641025641025,15.833333333333334,220.51282051282053,-1.8333333333333333,246.15384615384616,-1C271.7948717948718,-0.16666666666666674,282.05128205128204,18.166666666666668,307.6923076923077,19C333.3333333333333,19.833333333333332,343.5897435897436,2.166666666666667,369.2307692307692,3C394.87179487179486,3.833333333333333,405.12820512820514,22.166666666666668,430.7692307692308,23C456.4102564102564,23.833333333333332,466.6666666666667,6.166666666666667,492.3076923076923,7C517.948717948718,7.833333333333333,528.2051282051282,26.166666666666668,553.8461538461538,27C579.4871794871794,27.833333333333332,589.7435897435897,10.166666666666666,615.3846153846154,11C641.025641025641,11.833333333333334,651.2820512820513,30.166666666666668,676.9230769230769,31C702.5641025641025,31.833333333333332,712.8205128205128,14.166666666666666,738.4615384615385,15C764.1025641025641,15.833333333333334,787.1794871794872,30.833333333333332,800,35" transform="matrix(1,0,0,1,0,47)"></path></g></svg>